<svg width="16" height="16" viewBox="0 0 16 16" fill="none" xmlns="http://www.w3.org/2000/svg">
<path d="M6.50988 3.7805L7.13339 7.34193L8.88064 7.54625L8.21133 9.16316L5.38967 12.3688L3.21618 12.1011L1.28223 8.99407L1.03564 3.51278L3.81151 2.83643L5.39672 3.02313L6.50988 3.7805Z" fill="#00B9AE"/>
<path d="M14.8938 3.50221L15.2496 8.99406L11.6037 12.3688L8.57064 13.1121L5.00217 12.7704L7.53849 10.1565L8.97927 4.94299L9.96914 3.60789L12.1919 2.83643L14.8938 3.50221Z" fill="#00E1AB"/>
<path d="M8.23954 14.0879H7.76398C3.48393 14.0879 0 10.604 0 6.32393V6.05268C0 3.50931 1.35271 2.09671 3.80801 2.08262H3.81153H3.81506C5.0339 2.08967 5.98503 2.44898 6.64377 3.15C7.28841 3.83339 7.61955 4.80918 7.63012 6.05268V6.05973C7.63012 6.51415 7.74636 6.51415 7.99999 6.51415C8.20079 6.51415 8.28533 6.4754 8.29942 6.46131C8.32056 6.44018 8.3734 6.33097 8.3734 6.0562V6.04916C8.38397 4.80565 8.7151 3.82635 9.35975 3.14647C10.0185 2.44546 10.9696 2.08967 12.1849 2.0791H12.1885H12.192C14.6473 2.09671 16 3.50579 16 6.04916V6.32041C16.007 10.6075 12.5231 14.0879 8.23954 14.0879ZM3.81506 3.59385C2.19815 3.60442 1.51123 4.34066 1.51123 6.05268V6.32393C1.51123 9.77263 4.31528 12.5802 7.76398 12.5802H8.23954C11.6882 12.5802 14.4923 9.77615 14.4923 6.32393V6.05268C14.4923 4.34066 13.8018 3.60442 12.1885 3.59033C10.6068 3.6009 9.8952 4.36532 9.8811 6.05973C9.8811 7.29266 9.20827 8.00777 8.03874 8.02186H7.99999C6.82342 8.02186 6.11889 7.28914 6.11889 6.05973C6.1048 4.36532 5.39322 3.60442 3.81506 3.59385Z" fill="#184060"/>
<path d="M4.38929 13.1263C4.08281 13.1263 3.79396 12.9396 3.68123 12.6331C3.5368 12.2421 3.73407 11.8088 4.12509 11.6608C7.20743 10.516 8.07753 8.00429 8.32412 6.60931C8.40162 6.1584 8.40514 5.61591 8.40514 5.61239C8.40514 5.19671 8.74332 4.86206 9.15899 4.86206H9.16251C9.57819 4.86206 9.91637 5.20376 9.91637 5.61944C9.91637 5.64762 9.91284 6.29227 9.81069 6.87351C9.66978 7.66611 9.34217 8.85677 8.57071 10.0298C7.64776 11.4318 6.32676 12.4569 4.65349 13.0805C4.56542 13.1086 4.47383 13.1263 4.38929 13.1263Z" fill="#184060"/>
</svg>
