<svg width="177" height="177" viewBox="0 0 177 177" fill="none" xmlns="http://www.w3.org/2000/svg">
<path d="M72.0157 41.8223L78.9133 81.2205L98.2422 83.4808L90.838 101.368L59.6234 136.83L35.5791 133.868L14.1848 99.4973L11.457 38.8606L42.165 31.3784L59.7013 33.4438L72.0157 41.8223Z" fill="#00B9AE"/>
<path d="M164.763 38.7437L168.699 99.4973L128.366 136.83L94.8129 145.053L55.3367 141.273L83.3948 112.357L99.3334 54.6822L110.284 39.9128L134.874 31.3784L164.763 38.7437Z" fill="#00E1AB"/>
<path d="M91.1499 155.847H85.889C38.5409 155.847 0 117.306 0 69.9584V66.9577C0 38.8217 14.9643 23.1948 42.1261 23.039H42.1651H42.2041C55.6876 23.1169 66.2093 27.0918 73.4967 34.8468C80.6281 42.4069 84.2912 53.2014 84.4081 66.9577V67.0356C84.4081 72.0627 85.6941 72.0627 88.4999 72.0627C90.7212 72.0627 91.6565 71.6341 91.8124 71.4782C92.0462 71.2444 92.6307 70.0363 92.6307 66.9967V66.9187C92.7477 53.1625 96.4108 42.3289 103.542 34.8078C110.83 27.0528 121.351 23.1169 134.796 23H134.835H134.874C162.036 23.1948 177 38.7827 177 66.9187V69.9194C177.078 117.345 138.537 155.847 91.1499 155.847ZM42.2041 39.7569C24.317 39.8738 16.718 48.0185 16.718 66.9577V69.9584C16.718 108.11 47.7378 139.168 85.889 139.168H91.1499C129.301 139.168 160.321 108.149 160.321 69.9584V66.9577C160.321 48.0185 152.683 39.8738 134.835 39.718C117.337 39.8349 109.466 48.2913 109.31 67.0356C109.31 80.675 101.867 88.5858 88.9286 88.7417H88.4999C75.4841 88.7417 67.6902 80.636 67.6902 67.0356C67.5343 48.2913 59.6625 39.8738 42.2041 39.7569Z" fill="#184060"/>
<path d="M48.5562 145.209C45.1659 145.209 41.9704 143.143 40.7233 139.753C39.1256 135.427 41.3079 130.634 45.6335 128.997C79.7319 116.332 89.3574 88.5468 92.0853 73.1148C92.9426 68.1267 92.9816 62.1254 92.9816 62.0864C92.9816 57.488 96.7227 53.7859 101.321 53.7859H101.36C105.958 53.7859 109.7 57.5659 109.7 62.1644C109.7 62.4761 109.661 69.6075 108.53 76.0375C106.972 84.8057 103.347 97.9774 94.8131 110.954C84.6031 126.464 69.9895 137.804 51.479 144.702C50.5047 145.014 49.4915 145.209 48.5562 145.209Z" fill="#184060"/>
</svg>
