<svg width="718" height="462" viewBox="0 0 718 462" fill="none" xmlns="http://www.w3.org/2000/svg">
<mask id="mask0" mask-type="alpha" maskUnits="userSpaceOnUse" x="0" y="138" width="718" height="324">
<rect y="138" width="718" height="323.1" rx="60.9963" fill="white"/>
<rect y="138" width="718" height="323.1" rx="60.9963" fill="url(#paint0_linear)"/>
</mask>
<g mask="url(#mask0)">
<path fill-rule="evenodd" clip-rule="evenodd" d="M517.489 398.998C518.607 397.403 518.166 395.128 516.504 394.113C502.188 385.363 486.367 366.907 476.742 347.687C461.674 317.601 467.492 297.037 483.387 289.077C499.281 281.117 519.233 288.775 534.3 318.861C543.926 338.081 549.229 361.804 547.661 378.509C547.479 380.448 549.036 382.164 550.983 382.224C560.239 382.51 567.934 386.019 570.177 390.498C573.873 397.878 561.371 405.097 545.477 413.057C529.583 421.017 516.314 426.704 512.618 419.324C510.375 414.845 512.174 406.582 517.489 398.998Z" fill="#A6DAFF"/>
<path d="M500.057 311.07C497.08 312.56 493.458 311.356 491.967 308.379C490.476 305.402 491.681 301.78 494.658 300.289C497.635 298.798 501.257 300.002 502.748 302.98C504.239 305.957 503.034 309.579 500.057 311.07Z" fill="#474747"/>
<path d="M478.204 330.567C476.09 332.725 476.43 336.293 479.249 337.378C482.042 338.453 485.127 339.069 488.376 339.187C493.754 339.38 499.36 338.198 504.54 335.778C509.721 333.358 514.261 329.8 517.632 325.52C519.68 322.919 521.244 320.117 522.272 317.24C523.287 314.398 520.804 311.812 517.794 312.037V312.037C515.466 312.212 513.654 314.06 512.844 316.25C512.165 318.086 511.154 319.873 509.845 321.536C507.617 324.365 504.616 326.716 501.193 328.316C497.769 329.915 494.063 330.696 490.509 330.568C488.49 330.496 486.567 330.131 484.809 329.497C482.551 328.682 479.885 328.852 478.204 330.567V330.567Z" fill="#007BED"/>
<g style="mix-blend-mode:multiply">
<path fill-rule="evenodd" clip-rule="evenodd" d="M491.351 345.74C503.029 369.059 520.479 385.726 536.535 390.922C536.902 394.617 538.014 398.526 539.917 402.327C541.88 406.246 544.44 409.562 547.283 412.1C546.045 412.736 544.778 413.377 543.489 414.022C527.595 421.983 514.326 427.67 510.63 420.29C508.387 415.811 510.186 407.548 515.501 399.964C516.619 398.369 516.178 396.094 514.516 395.078C500.2 386.329 484.379 367.873 474.754 348.653C460.047 319.288 465.237 298.994 480.274 290.637C477.913 306.026 481.519 326.109 491.351 345.74Z" fill="#A6DAFF"/>
</g>
<path fill-rule="evenodd" clip-rule="evenodd" d="M507.085 398.688C492.471 388.113 477.844 370.084 468.656 351.737C460.608 335.668 457.572 321.054 459.52 308.679C461.522 295.964 468.72 286.309 479.337 280.992C489.954 275.675 501.997 275.694 513.378 281.707C524.454 287.559 534.338 298.743 542.386 314.812C551.574 333.159 557.25 355.671 556.965 373.707C560.507 374.253 563.856 375.199 566.839 376.507C571.153 378.397 575.807 381.545 578.262 386.449C580.599 391.114 580.221 395.935 578.233 399.995C576.474 403.586 573.564 406.427 570.824 408.62C565.311 413.033 557.355 417.222 549.526 421.143C541.698 425.063 533.577 428.925 526.742 430.697C523.345 431.577 519.327 432.206 515.397 431.464C510.955 430.624 506.869 428.039 504.533 423.374C502.077 418.47 502.343 412.858 503.413 408.271C504.153 405.099 505.401 401.851 507.085 398.688ZM516.504 394.113C518.166 395.129 518.607 397.404 517.489 398.999C512.174 406.582 510.375 414.846 512.618 419.325C516.314 426.704 529.582 421.017 545.477 413.057C561.371 405.097 573.873 397.878 570.177 390.499C567.934 386.019 560.239 382.511 550.983 382.224C549.036 382.164 547.478 380.448 547.661 378.509C549.229 361.805 543.926 338.081 534.3 318.861C519.233 288.776 499.281 281.117 483.386 289.078C467.492 297.038 461.674 317.602 476.741 347.687C486.367 366.908 502.188 385.364 516.504 394.113Z" fill="#007BED"/>
<path d="M540.287 361.954C537.939 362.587 534.103 355.934 531.719 347.093C529.335 338.253 529.305 330.573 531.652 329.94C534 329.307 537.836 335.96 540.22 344.801C542.605 353.641 542.634 361.321 540.287 361.954Z" fill="white"/>
<g clip-path="url(#clip0)" filter="url(#filter0_d)">
<path d="M235.195 265.113L240.932 272.04C252.112 286.052 227.369 322.859 188.127 355.273C148.928 387.737 108.197 405.241 96.5136 391.646L90.7766 384.719C102.46 398.314 143.233 380.861 182.39 348.346C221.632 315.932 246.418 279.176 235.195 265.113Z" fill="#ED9700"/>
<path d="M235.193 265.119L240.93 272.046C242.069 273.421 242.856 275.088 243.256 276.903L237.52 269.976C237.069 268.203 236.324 266.587 235.193 265.119Z" fill="#ED9700"/>
<path d="M237.467 270.022L243.204 276.949C243.537 278.477 243.676 280.079 243.563 281.889L237.827 274.962C237.981 273.203 237.85 271.508 237.467 270.022Z" fill="#ED9700"/>
<path d="M237.878 274.917L243.615 281.844C243.488 284.354 242.924 287.054 241.924 289.943L236.229 283.067C237.187 280.126 237.751 277.427 237.878 274.917Z" fill="#ED9700"/>
<path d="M236.231 283.061L241.968 289.988C236.076 307.662 215.737 332.579 188.169 355.324C148.97 387.788 108.239 405.292 96.5558 391.697L90.7766 384.719C102.46 398.314 143.233 380.861 182.39 348.346C209.907 325.642 230.339 300.735 236.231 283.061Z" fill="#ED9700"/>
<path d="M179.518 344.893C218.286 312.785 241.726 277.11 231.871 265.211C222.016 253.312 182.599 269.694 143.831 301.802C105.062 333.91 81.623 369.584 91.4777 381.483C101.332 393.383 140.749 377 179.518 344.893Z" fill="url(#paint1_linear)"/>
<path d="M150.868 307.222C184.532 279.341 218.097 263.736 228.407 270.654C228.137 270.02 227.807 269.52 227.385 269.01C219.202 259.129 183.846 274.928 148.421 304.267C112.903 333.597 90.8855 365.399 99.0269 375.23C99.4487 375.739 99.929 376.114 100.452 376.54C95.5758 365.121 117.203 335.102 150.868 307.222Z" fill="#ED9700"/>
<path d="M143.835 301.799L143.582 301.494C182.782 269.029 223.513 251.525 235.196 265.12C246.376 279.132 221.632 315.94 182.391 348.353C143.191 380.818 102.46 398.321 90.7771 384.726C79.5467 370.757 104.383 333.958 143.582 301.494L143.835 301.799C105.038 333.93 81.6535 369.613 91.4822 381.481C101.353 393.399 140.776 376.979 179.522 344.89C218.269 312.8 241.746 277.127 231.875 265.208C222.047 253.341 182.582 269.71 143.835 301.799Z" fill="#FFEA83"/>
<path d="M143.828 301.807L143.575 301.502C146.091 299.418 148.649 297.385 151.106 295.436L151.259 295.825C148.801 297.774 146.293 299.765 143.828 301.807Z" fill="#FFEA83"/>
<path d="M151.304 295.87L151.151 295.481C159.816 288.734 168.508 282.738 176.833 277.732L176.49 278.445C168.409 283.335 159.868 289.207 151.304 295.87Z" fill="#FFEA83"/>
<path d="M176.493 278.44L176.793 277.676C183.54 273.634 189.996 270.263 196.066 267.554L195.186 268.54C189.401 271.184 183.089 274.523 176.493 278.44Z" fill="#FFEA83"/>
<path d="M195.233 268.507L196.113 267.521C200.63 265.497 204.921 263.918 208.945 262.732L207.594 263.765C203.705 265.011 199.599 266.608 195.233 268.507Z" fill="#FFEA83"/>
<path d="M207.543 263.808L208.894 262.775C211.624 261.974 214.245 261.349 216.749 260.992L214.986 261.937C212.659 262.405 210.181 262.997 207.543 263.808Z" fill="#FFEA83"/>
<path d="M214.939 261.974L216.702 261.029C218.5 260.742 220.24 260.589 221.828 260.561L219.746 261.427C218.292 261.515 216.645 261.677 214.939 261.974Z" fill="#FFEA83"/>
<path d="M219.795 261.385L221.878 260.519C223.139 260.506 224.349 260.533 225.502 260.695L223.192 261.492C222.132 261.339 221.014 261.321 219.795 261.385Z" fill="#FFEA83"/>
<path d="M223.151 261.44L225.46 260.644C226.478 260.745 227.395 260.931 228.312 261.116L225.733 261.792C225.001 261.625 224.126 261.491 223.151 261.44Z" fill="#FFEA83"/>
<path d="M225.826 261.799L228.405 261.123C229.271 261.35 230.088 261.618 230.854 261.929L228.056 262.443C227.332 262.183 226.558 261.966 225.826 261.799Z" fill="#FFEA83"/>
<path d="M228.003 262.491L230.801 261.977C231.836 262.407 232.813 262.972 233.639 263.662L230.537 263.912C229.796 263.324 228.945 262.912 228.003 262.491Z" fill="#FFEA83"/>
<path d="M230.534 263.919L233.636 263.669C234.2 264.146 234.765 264.623 235.187 265.132C235.44 265.438 235.643 265.785 235.896 266.091L232.449 266.026C232.288 265.73 232.077 265.475 231.866 265.22C231.487 264.762 231.015 264.294 230.534 263.919Z" fill="#FFEA83"/>
<path d="M232.495 266.066L235.942 266.131C236.475 266.979 236.864 267.858 237.245 268.831L233.637 268.47C233.298 267.548 232.901 266.761 232.495 266.066Z" fill="#FFEA83"/>
<path d="M233.554 268.367L237.161 268.729C237.424 269.456 237.594 270.173 237.706 271.025L234.03 270.377C233.902 269.71 233.774 269.044 233.554 268.367Z" fill="#FFEA83"/>
<path d="M233.978 270.423L237.653 271.071C237.773 271.831 237.843 272.632 237.82 273.423L234.068 272.581C234.133 271.84 234.055 271.131 233.978 270.423Z" fill="#FFEA83"/>
<path d="M234.071 272.573L237.823 273.416C237.843 274.259 237.803 275.236 237.672 276.203L233.801 275.115C234.017 274.249 234.091 273.416 234.071 272.573Z" fill="#FFEA83"/>
<path d="M233.891 275.133L237.761 276.221C237.613 277.374 237.415 278.568 237.116 279.847L233.22 278.522C233.51 277.337 233.751 276.193 233.891 275.133Z" fill="#FFEA83"/>
<path d="M233.22 278.52L237.117 279.844C236.735 281.534 236.21 283.256 235.492 285.053L231.578 283.4C232.246 281.645 232.804 280.066 233.22 278.52Z" fill="#FFEA83"/>
<path d="M231.577 283.403L235.491 285.056C234.523 287.575 233.262 290.252 231.757 293.044L227.883 290.928C229.372 288.321 230.575 285.779 231.577 283.403Z" fill="#FFEA83"/>
<path d="M227.926 290.978L231.799 293.094C229.567 297.261 226.763 301.558 223.472 306.087L219.782 303.475C222.964 299.123 225.667 294.909 227.926 290.978Z" fill="#FFEA83"/>
<path d="M219.783 303.475L223.473 306.086C218.96 312.314 213.439 318.862 207.169 325.428L203.856 322.247C209.975 315.806 215.337 309.476 219.783 303.475Z" fill="#FFEA83"/>
<path d="M203.807 322.285L207.12 325.466C199.82 333.144 191.486 340.904 182.378 348.448C181.221 349.406 180.114 350.323 179.007 351.24L176.146 347.684C177.253 346.767 178.36 345.85 179.468 344.933C188.525 337.432 196.708 329.796 203.807 322.285Z" fill="#FFEA83"/>
<path d="M176.144 347.69L179.005 351.246C166.147 361.637 153.108 370.375 141.155 376.839L139.034 372.843C150.701 366.444 163.395 357.905 176.144 347.69Z" fill="#FFEA83"/>
<path d="M139.041 372.752L141.163 376.748C132.198 381.596 123.76 385.236 116.393 387.301L115.178 383.069C122.218 381.017 130.32 377.484 139.041 372.752Z" fill="#FFEA83"/>
<path d="M115.174 383.15L116.389 387.382C104.578 390.638 95.3798 390.184 90.7737 384.725C87.0778 380.057 87.284 372.931 90.7559 364.217L92.0546 362.712C88.6315 370.87 88.2388 377.464 91.5291 381.437C95.4019 386.216 103.868 386.503 115.174 383.15Z" fill="#FFEA83"/>
<path d="M92.0468 362.804L90.7481 364.309C92.6757 359.363 95.6777 353.871 99.5871 348.144L100.72 347.463C96.9276 352.922 93.9499 358.136 92.0468 362.804Z" fill="#FFEA83"/>
<path d="M100.686 347.321L99.5526 348.001C104.701 340.389 111.394 332.184 119.356 323.872L120.004 323.937C112.243 332.082 105.717 339.977 100.686 347.321Z" fill="#FFEA83"/>
<path d="M120.001 323.943L119.345 323.97C126.537 316.469 134.669 308.875 143.576 301.499L143.829 301.804C135.023 309.097 126.991 316.608 120.001 323.943Z" fill="#FFEA83"/>
<path d="M235.137 265.249L240.874 272.176C252.054 286.188 227.311 322.996 188.069 355.409C148.87 387.874 108.139 405.377 96.4553 391.782L90.7183 384.855C102.402 398.45 143.175 380.998 182.332 348.482C221.574 316.069 246.359 279.312 235.137 265.249Z" fill="url(#paint2_linear)"/>
<path d="M235.137 265.247L240.874 272.174C242.013 273.55 242.8 275.217 243.2 277.032L237.464 270.105C237.063 268.289 236.276 266.623 235.137 265.247Z" fill="url(#paint3_linear)"/>
<path d="M237.464 270.103L243.201 277.03C243.533 278.558 243.672 280.16 243.56 281.971L237.823 275.044C237.885 273.275 237.796 271.631 237.464 270.103Z" fill="url(#paint4_linear)"/>
<path d="M237.822 275.045L243.559 281.973C243.432 284.482 242.868 287.182 241.868 290.071L236.131 283.144C237.131 280.255 237.653 277.504 237.822 275.045Z" fill="url(#paint5_linear)"/>
<path d="M236.131 283.146L241.868 290.073C235.976 307.747 215.636 332.664 188.069 355.409C148.87 387.874 108.139 405.377 96.4553 391.782L90.7183 384.855C102.402 398.45 143.175 380.998 182.332 348.482C209.899 325.737 230.281 300.871 236.131 283.146Z" fill="url(#paint6_linear)"/>
<path d="M137.821 388.269C146.284 384.352 155.424 379.101 164.888 372.808L159.109 365.83C149.687 372.174 140.505 377.374 132.042 381.291L137.821 388.269Z" fill="#FFF9E1"/>
</g>
<g clip-path="url(#clip1)" filter="url(#filter1_d)">
<path d="M547.958 481.417L542.941 488.882C532.671 503.574 490.361 490.274 448.156 461.826C405.915 433.432 377.587 399.331 387.314 384.274L392.332 376.809C382.605 391.866 410.895 426.023 453.174 454.361C495.378 482.81 537.652 496.164 547.958 481.417Z" fill="#ED9700"/>
<path d="M531.04 487.496L526.022 494.961C507.402 494.318 477.744 481.873 448.119 461.881C405.878 433.487 377.55 399.385 387.277 384.329L392.332 376.809C382.605 391.866 410.895 426.023 453.174 454.361C482.744 474.317 512.42 486.854 531.04 487.496Z" fill="#ED9700"/>
<path d="M455.672 450.628C497.449 478.709 538.303 491.079 546.922 478.257C555.541 465.434 528.661 432.275 486.884 404.193C445.106 376.112 404.252 363.742 395.633 376.565C387.014 389.387 413.894 422.547 455.672 450.628Z" fill="url(#paint7_linear)"/>
<path d="M483.68 412.477C519.957 436.862 544.433 464.629 540.721 476.477C541.252 476.038 541.638 475.58 542.007 475.031C549.165 464.383 523.994 434.954 485.82 409.294C447.628 383.543 410.89 371.439 403.77 382.032C403.401 382.581 403.177 383.148 402.917 383.77C412.486 375.858 447.403 388.093 483.68 412.477Z" fill="#ED9700"/>
<path d="M486.886 404.195L487.107 403.866C529.348 432.26 557.676 466.361 547.949 481.418C537.68 496.11 495.369 482.811 453.165 454.362C410.923 425.969 382.596 391.867 392.323 376.81C402.538 362.082 444.866 375.473 487.107 403.866L486.886 404.195C445.078 376.093 404.232 363.778 395.635 376.567C387.002 389.41 413.92 422.564 455.674 450.63C497.427 478.695 538.291 491.102 546.924 478.259C555.52 465.47 528.639 432.261 486.886 404.195Z" fill="#FFEA83"/>
<path d="M486.878 404.192L487.099 403.863C489.81 405.685 492.485 407.563 495.05 409.367L494.721 409.623C492.155 407.819 489.535 405.978 486.878 404.192Z" fill="#FFEA83"/>
<path d="M494.69 409.679L495.02 409.423C503.945 415.82 512.159 422.457 519.318 429.022L518.537 428.896C511.558 422.531 503.507 416.004 494.69 409.679Z" fill="#FFEA83"/>
<path d="M518.543 428.897L519.36 428.968C525.149 434.294 530.211 439.529 534.529 444.583L533.334 444.019C529.159 439.22 524.169 434.113 518.543 428.897Z" fill="#FFEA83"/>
<path d="M533.38 444.054L534.575 444.619C537.795 448.377 540.526 452.045 542.803 455.568L541.43 454.565C539.133 451.189 536.437 447.704 533.38 444.054Z" fill="#FFEA83"/>
<path d="M541.374 454.528L542.747 455.531C544.289 457.922 545.631 460.259 546.683 462.559L545.277 461.136C544.169 459.037 542.899 456.828 541.374 454.528Z" fill="#FFEA83"/>
<path d="M484.235 467.515L482.123 471.594C472.691 466.769 462.887 460.976 453.073 454.378C451.825 453.54 450.632 452.738 449.439 451.936L452.039 448.186C453.232 448.987 454.425 449.789 455.618 450.591C465.379 457.152 475.02 462.836 484.235 467.515Z" fill="#FFEA83"/>
<path d="M452.033 448.185L449.433 451.936C435.824 442.55 423.75 432.521 414.164 422.89L417.395 419.723C426.838 429.099 438.624 438.854 452.033 448.185Z" fill="#FFEA83"/>
<path d="M417.484 419.704L414.253 422.871C407.064 415.648 401.182 408.587 397.114 402.107L400.829 399.743C404.791 405.913 410.475 412.682 417.484 419.704Z" fill="#FFEA83"/>
<path d="M400.749 399.763L397.035 402.127C390.566 391.723 388.395 382.773 392.325 376.808C395.754 371.941 402.647 370.12 411.988 370.98L413.799 371.799C405.005 370.828 398.57 372.32 395.692 376.601C392.207 381.669 394.331 389.87 400.749 399.763Z" fill="#FFEA83"/>
<path d="M413.709 371.817L411.897 370.998C417.186 371.445 423.304 372.768 429.905 374.894L430.878 375.788C424.568 373.698 418.724 372.32 413.709 371.817Z" fill="#FFEA83"/>
<path d="M431.005 375.715L430.031 374.821C438.79 377.601 448.555 381.695 458.783 386.976L458.904 387.615C448.894 382.48 439.473 378.459 431.005 375.715Z" fill="#FFEA83"/>
<path d="M458.898 387.614L458.686 386.993C467.917 391.764 477.505 397.412 487.102 403.863L486.881 404.192C477.392 397.814 467.913 392.239 458.898 387.614Z" fill="#FFEA83"/>
<path d="M547.811 481.399L542.794 488.864C532.524 503.556 490.214 490.257 448.009 461.808C405.768 433.415 377.44 399.313 387.167 384.256L392.185 376.792C382.458 391.848 410.749 426.005 453.027 454.344C495.232 482.792 537.505 496.146 547.811 481.399Z" fill="url(#paint8_linear)"/>
<path d="M530.93 487.424L525.912 494.888C507.293 494.246 477.634 481.801 448.009 461.808C405.768 433.415 377.44 399.313 387.167 384.256L392.185 376.792C382.458 391.848 410.749 426.005 453.027 454.344C482.651 474.336 512.273 486.836 530.93 487.424Z" fill="url(#paint9_linear)"/>
<path d="M402.257 422.932C408.412 429.938 416.038 437.215 424.755 444.508L429.809 436.989C421.055 429.75 413.467 422.418 407.312 415.412L402.257 422.932Z" fill="#FFF9E1"/>
</g>
<g clip-path="url(#clip2)" filter="url(#filter2_d)">
<path d="M692.288 357.734L694.062 364.993C697.332 379.522 665.482 398.05 624.392 408.033C583.314 418.069 546.522 416.369 542.724 401.969L540.951 394.71C544.748 409.11 581.554 410.864 622.618 400.774C663.709 390.791 695.572 372.316 692.288 357.734Z" fill="#ED9700"/>
<path d="M692.284 357.738L694.058 364.997C694.41 366.438 694.393 367.969 694.033 369.471L692.26 362.212C692.567 360.723 692.597 359.245 692.284 357.738Z" fill="#ED9700"/>
<path d="M692.205 362.227L693.978 369.486C693.672 370.748 693.195 371.996 692.454 373.309L690.68 366.05C691.434 364.791 691.951 363.477 692.205 362.227Z" fill="#ED9700"/>
<path d="M690.735 366.035L692.509 373.294C691.503 375.123 690.102 376.936 688.305 378.732L686.545 371.527C688.328 369.677 689.729 367.864 690.735 366.035Z" fill="#ED9700"/>
<path d="M686.549 371.523L688.322 378.782C677.505 389.853 653.262 401.093 624.405 408.087C583.327 418.123 546.535 416.422 542.737 402.022L540.951 394.71C544.748 409.11 581.554 410.864 622.618 400.774C651.422 393.793 675.731 382.594 686.549 371.523Z" fill="#ED9700"/>
<path d="M621.725 397.151C662.35 387.225 692.815 369.07 689.768 356.601C686.721 344.132 651.318 342.07 610.692 351.996C570.066 361.922 539.602 380.077 542.649 392.546C545.695 405.015 581.099 407.077 621.725 397.151Z" fill="url(#paint10_linear)"/>
<path d="M613.984 358.6C649.261 349.981 680.009 350.5 685.204 359.412C685.232 358.839 685.167 358.346 685.037 357.812C682.507 347.458 650.35 346.434 613.228 355.504C576.039 364.534 548.043 380.311 550.56 390.612C550.691 391.146 550.913 391.6 551.149 392.108C551.649 381.805 578.707 367.219 613.984 358.6Z" fill="#ED9700"/>
<path d="M610.702 351.994L610.624 351.674C651.701 341.638 688.493 343.338 692.291 357.738C695.562 372.267 663.711 390.796 622.621 400.779C581.544 410.815 544.751 409.114 540.953 394.714C537.63 380.198 569.546 361.71 610.624 351.674L610.702 351.994C570.046 361.928 539.62 380.108 542.658 392.544C545.71 405.034 581.132 407.07 621.734 397.149C662.337 387.229 692.829 369.089 689.778 356.599C686.739 344.163 651.305 342.074 610.702 351.994Z" fill="#FFEA83"/>
<path d="M610.688 351.999L610.609 351.679C613.246 351.035 615.896 350.444 618.44 349.879L618.412 350.225C615.868 350.79 613.271 351.368 610.688 351.999Z" fill="#FFEA83"/>
<path d="M618.43 350.275L618.457 349.929C627.381 348.031 636.053 346.704 644.091 345.984L643.576 346.393C635.762 347.114 627.248 348.403 618.43 350.275Z" fill="#FFEA83"/>
<path d="M643.58 346.39L644.082 345.928C650.591 345.356 656.639 345.179 662.159 345.358L661.143 345.776C655.86 345.652 649.931 345.857 643.58 346.39Z" fill="#FFEA83"/>
<path d="M661.19 345.768L662.206 345.35C666.316 345.477 670.096 345.854 673.533 346.428L672.149 346.71C668.791 346.23 665.142 345.933 661.19 345.768Z" fill="#FFEA83"/>
<path d="M672.096 346.723L673.48 346.442C675.811 346.834 677.997 347.318 679.998 347.96L678.337 348.026C676.428 347.531 674.361 347.075 672.096 346.723Z" fill="#FFEA83"/>
<path d="M678.289 348.036L679.949 347.97C681.397 348.408 682.753 348.925 683.95 349.481L682.08 349.373C680.961 348.911 679.671 348.434 678.289 348.036Z" fill="#FFEA83"/>
<path d="M682.132 349.359L684.002 349.468C684.95 349.915 685.844 350.375 686.647 350.915L684.631 350.672C683.895 350.173 683.066 349.753 682.132 349.359Z" fill="#FFEA83"/>
<path d="M684.619 350.618L686.635 350.861C687.358 351.306 687.976 351.777 688.594 352.249L686.421 351.818C685.935 351.428 685.33 351.01 684.619 350.618Z" fill="#FFEA83"/>
<path d="M686.488 351.857L688.661 352.288C689.227 352.772 689.739 353.269 690.199 353.779L687.921 353.147C687.474 352.691 686.975 352.247 686.488 351.857Z" fill="#FFEA83"/>
<path d="M687.864 353.164L690.142 353.795C690.759 354.493 691.284 355.27 691.651 356.085L689.243 355.146C688.902 354.438 688.416 353.821 687.864 353.164Z" fill="#FFEA83"/>
<path d="M689.238 355.151L691.647 356.089C691.895 356.651 692.144 357.212 692.275 357.746C692.353 358.066 692.379 358.399 692.457 358.719L689.904 357.42C689.892 357.14 689.826 356.873 689.761 356.606C689.644 356.126 689.461 355.605 689.238 355.151Z" fill="#FFEA83"/>
<path d="M689.924 357.467L692.477 358.766C692.567 359.593 692.539 360.392 692.471 361.257L689.905 359.677C689.986 358.866 689.975 358.133 689.924 357.467Z" fill="#FFEA83"/>
<path d="M689.88 359.571L692.445 361.15C692.377 361.788 692.244 362.387 692.019 363.064L689.507 361.245C689.653 360.701 689.799 360.156 689.88 359.571Z" fill="#FFEA83"/>
<path d="M689.451 361.261L691.963 363.079C691.777 363.69 691.538 364.314 691.233 364.897L688.735 362.906C689.053 362.376 689.252 361.818 689.451 361.261Z" fill="#FFEA83"/>
<path d="M688.74 362.902L691.239 364.893C690.947 365.53 690.563 366.246 690.114 366.921L687.616 364.703C688.092 364.135 688.449 363.538 688.74 362.902Z" fill="#FFEA83"/>
<path d="M687.677 364.749L690.174 366.967C689.645 367.775 689.063 368.596 688.376 369.442L685.945 367.038C686.592 366.258 687.187 365.491 687.677 364.749Z" fill="#FFEA83"/>
<path d="M685.946 367.037L688.378 369.441C687.479 370.565 686.462 371.662 685.273 372.744L682.948 370.088C684.084 369.019 685.074 368.042 685.946 367.037Z" fill="#FFEA83"/>
<path d="M682.946 370.09L685.271 372.746C683.634 374.278 681.72 375.82 679.581 377.36L677.455 374.373C679.513 372.965 681.335 371.502 682.946 370.09Z" fill="#FFEA83"/>
<path d="M677.469 374.426L679.595 377.413C676.414 379.717 672.76 381.911 668.657 384.101L666.847 380.81C670.805 378.712 674.354 376.544 677.469 374.426Z" fill="#FFEA83"/>
<path d="M666.848 380.81L668.658 384.101C663.025 387.117 656.522 390.007 649.454 392.639L648.132 389.059C655.042 386.466 661.347 383.681 666.848 380.81Z" fill="#FFEA83"/>
<path d="M648.081 389.07L649.403 392.65C641.161 395.739 632.116 398.514 622.572 400.846C621.359 401.142 620.199 401.426 619.039 401.709L618.192 398.013C619.352 397.73 620.512 397.447 621.672 397.163C631.164 394.844 640.05 392.107 648.081 389.07Z" fill="#FFEA83"/>
<path d="M618.188 398.018L619.035 401.713C605.655 404.813 592.739 406.611 581.46 407.104L581.325 403.348C592.367 402.799 604.953 401.025 618.188 398.018Z" fill="#FFEA83"/>
<path d="M581.364 403.282L581.499 407.038C573.04 407.408 565.413 407.066 559.158 405.936L559.786 402.332C565.791 403.354 573.129 403.654 581.364 403.282Z" fill="#FFEA83"/>
<path d="M559.753 402.392L559.125 405.995C549.117 404.142 542.407 400.465 540.946 394.713C539.878 389.884 542.618 384.633 548.376 379.38L549.892 378.727C544.373 383.582 541.687 388.367 542.704 392.53C543.864 397.507 550.087 400.794 559.753 402.392Z" fill="#FFEA83"/>
<path d="M549.853 378.793L548.336 379.446C551.572 376.45 555.808 373.435 560.809 370.573L561.902 370.475C557.087 373.179 552.969 375.995 549.853 378.793Z" fill="#FFEA83"/>
<path d="M561.928 370.357L560.834 370.454C567.444 366.634 575.424 362.93 584.391 359.608L584.852 359.892C576.096 363.162 568.353 366.694 561.928 370.357Z" fill="#FFEA83"/>
<path d="M584.848 359.895L584.348 359.678C592.444 356.681 601.278 353.957 610.612 351.677L610.69 351.997C601.462 354.252 592.734 356.95 584.848 359.895Z" fill="#FFEA83"/>
<path d="M692.195 357.814L693.969 365.073C697.239 379.602 665.389 398.13 624.299 408.113C583.221 418.149 546.429 416.449 542.631 402.049L540.857 394.79C544.655 409.19 581.461 410.944 622.525 400.854C663.615 390.871 695.478 372.396 692.195 357.814Z" fill="url(#paint11_linear)"/>
<path d="M692.196 357.813L693.97 365.072C694.322 366.513 694.305 368.045 693.945 369.547L692.172 362.288C692.531 360.786 692.548 359.254 692.196 357.813Z" fill="url(#paint12_linear)"/>
<path d="M692.173 362.287L693.946 369.545C693.64 370.808 693.163 372.056 692.422 373.368L690.648 366.109C691.336 364.81 691.866 363.549 692.173 362.287Z" fill="url(#paint13_linear)"/>
<path d="M690.647 366.111L692.42 373.369C691.414 375.199 690.013 377.012 688.217 378.808L686.444 371.549C688.24 369.753 689.628 367.887 690.647 366.111Z" fill="url(#paint14_linear)"/>
<path d="M686.443 371.55L688.216 378.808C677.399 389.879 653.155 401.119 624.299 408.113C583.221 418.149 546.429 416.449 542.631 402.049L540.857 394.79C544.655 409.19 581.461 410.944 622.525 400.854C651.382 393.86 675.638 382.674 686.443 371.55Z" fill="url(#paint15_linear)"/>
<path d="M574.821 414.437C582.567 414.58 591.303 413.973 600.661 412.705L598.874 405.392C589.53 406.714 580.78 407.268 573.034 407.124L574.821 414.437Z" fill="#FFF9E1"/>
</g>
</g>
<path fill-rule="evenodd" clip-rule="evenodd" d="M370.938 254.712C371.842 251.309 369.678 247.722 366.226 247.033C336.483 241.093 298.145 219.614 269.846 192.984C225.55 151.298 222.626 112.775 244.649 89.3733C266.671 65.9713 305.3 66.5518 349.597 108.237C377.896 134.868 401.662 171.832 409.395 201.159C410.293 204.564 414.005 206.506 417.346 205.397C433.234 200.122 448.477 201.289 455.072 207.495C465.937 217.72 449.212 237.752 427.19 261.154C405.167 284.556 386.187 302.466 375.321 292.241C368.726 286.035 366.637 270.891 370.938 254.712Z" fill="#A6DAFF"/>
<path d="M272.107 167.917C271.614 170.963 274.076 173.686 277.113 173.137C282.592 172.147 288.085 170.243 293.361 167.493C300.556 163.741 307.155 158.514 312.645 152.217C318.135 145.919 322.37 138.719 325.023 131.175C326.945 125.707 327.999 120.165 328.154 114.773C328.245 111.644 325.136 109.601 322.153 110.552C319.934 111.26 318.546 113.427 318.532 115.757C318.503 120.364 317.65 125.124 316.001 129.814C313.87 135.875 310.468 141.658 306.058 146.717C301.648 151.776 296.347 155.974 290.567 158.988C286.026 161.355 281.284 162.942 276.571 163.681C274.337 164.032 272.467 165.685 272.107 167.917Z" fill="#007BED"/>
<g style="mix-blend-mode:multiply">
<path fill-rule="evenodd" clip-rule="evenodd" d="M293.43 180.587C327.764 212.896 367.753 230.324 398.238 229.15C401.159 235.193 405.479 241.136 411.075 246.402C416.846 251.833 423.254 255.867 429.659 258.405C427.954 260.255 426.203 262.131 424.416 264.029C402.394 287.432 383.413 305.341 372.548 295.117C365.953 288.911 363.864 273.766 368.164 257.587C369.069 254.185 366.905 250.598 363.452 249.908C333.709 243.969 295.371 222.49 267.073 195.859C223.837 155.172 220.016 117.499 240.335 93.9566C245.906 121.545 264.526 153.386 293.43 180.587Z" fill="#A6DAFF"/>
</g>
<mask id="path-113-outside-1" maskUnits="userSpaceOnUse" x="188.065" y="30.0374" width="295.483" height="289.731" fill="black">
<rect fill="white" x="188.065" y="30.0374" width="295.483" height="289.731"/>
<path fill-rule="evenodd" clip-rule="evenodd" d="M370.938 254.712C371.842 251.309 369.678 247.722 366.226 247.033C336.483 241.093 298.145 219.614 269.846 192.984C225.55 151.298 222.626 112.775 244.649 89.3733C266.671 65.9713 305.3 66.5518 349.597 108.237C377.896 134.868 401.662 171.832 409.395 201.159C410.293 204.564 414.005 206.506 417.346 205.397C433.234 200.122 448.477 201.289 455.072 207.495C465.937 217.72 449.212 237.752 427.19 261.154C405.167 284.556 386.187 302.466 375.321 292.241C368.726 286.035 366.637 270.891 370.938 254.712Z"/>
</mask>
<path d="M455.072 207.495L447.308 215.745L455.072 207.495ZM409.395 201.159L420.349 198.271L409.395 201.159ZM417.346 205.397L413.777 194.645L417.346 205.397ZM366.226 247.033L368.444 235.923L366.226 247.033ZM370.938 254.712L381.887 257.622L370.938 254.712ZM368.444 235.923C341.286 230.5 304.788 210.31 277.61 184.734L262.083 201.234C291.502 228.919 331.68 251.687 364.007 258.142L368.444 235.923ZM277.61 184.734C256.509 164.876 246.396 146.807 243.491 132.123C240.67 117.863 244.451 106.114 252.899 97.1371L236.399 81.6095C222.823 96.0351 217.056 115.248 221.264 136.521C225.39 157.371 238.887 179.406 262.083 201.234L277.61 184.734ZM252.899 97.1371C261.346 88.1606 272.844 83.6728 287.25 85.6238C302.083 87.6326 320.732 96.6301 341.833 116.488L357.361 99.9873C334.165 78.159 311.352 66.0235 290.291 63.1712C268.802 60.261 249.974 67.184 236.399 81.6095L252.899 97.1371ZM341.833 116.488C369.011 142.063 391.379 177.269 398.441 204.048L420.349 198.271C411.944 166.395 386.78 127.672 357.361 99.9873L341.833 116.488ZM420.915 216.149C427.662 213.909 433.995 213.14 438.997 213.448C444.318 213.776 446.729 215.2 447.308 215.745L462.836 199.245C456.82 193.583 448.313 191.322 440.391 190.833C432.151 190.326 422.918 191.61 413.777 194.645L420.915 216.149ZM447.308 215.745C447.417 215.847 447.279 215.738 447.182 215.454C447.098 215.21 447.18 215.23 447.129 215.726C446.998 216.976 446.216 219.48 443.772 223.517C438.913 231.544 430.065 241.568 418.94 253.39L435.44 268.918C446.337 257.338 456.863 245.645 463.155 235.25C466.288 230.075 469.026 224.191 469.664 218.077C470.37 211.314 468.43 204.509 462.836 199.245L447.308 215.745ZM418.94 253.39C407.815 265.212 398.345 274.653 390.628 279.99C386.747 282.674 384.295 283.607 383.055 283.813C382.563 283.895 382.538 283.814 382.787 283.882C383.076 283.962 383.194 284.093 383.085 283.991L367.557 300.491C373.151 305.755 380.062 307.279 386.77 306.164C392.833 305.156 398.54 302.066 403.515 298.625C413.51 291.713 424.542 280.498 435.44 268.918L418.94 253.39ZM383.085 283.991C382.506 283.446 380.938 281.126 380.288 275.835C379.677 270.86 380.06 264.493 381.887 257.622L359.989 251.802C357.515 261.11 356.793 270.404 357.8 278.598C358.768 286.476 361.542 294.83 367.557 300.491L383.085 283.991ZM398.441 204.048C401.055 213.962 411.558 219.255 420.915 216.149L413.777 194.645C416.451 193.757 419.531 195.166 420.349 198.271L398.441 204.048ZM364.007 258.142C360.858 257.513 359.266 254.525 359.989 251.802L381.887 257.622C384.419 248.094 378.498 237.931 368.444 235.923L364.007 258.142Z" fill="#007BED" mask="url(#path-113-outside-1)"/>
<ellipse cx="369.288" cy="153.17" rx="29.9701" ry="7.95886" transform="rotate(54.7693 369.288 153.17)" fill="white"/>
<path d="M451.389 24.4877C452.606 18.8222 460.689 18.8222 461.906 24.4877L469.228 58.5863C469.672 60.6552 471.289 62.2713 473.357 62.7156L507.456 70.0378C513.122 71.2544 513.122 79.3381 507.456 80.5547L473.357 87.8769C471.289 88.3212 469.672 89.9373 469.228 92.0061L461.906 126.105C460.689 131.77 452.606 131.77 451.389 126.105L444.067 92.0061C443.623 89.9373 442.007 88.3212 439.938 87.8769L405.839 80.5547C400.174 79.3381 400.174 71.2544 405.839 70.0378L439.938 62.7156C442.007 62.2713 443.623 60.6552 444.067 58.5863L451.389 24.4877Z" fill="white"/>
<path d="M276.092 70.4079C276.769 67.8913 280.34 67.8913 281.018 70.4079L287.863 95.8321C288.099 96.7099 288.785 97.3956 289.663 97.6319L315.087 104.477C317.604 105.155 317.604 108.726 315.087 109.403L289.663 116.249C288.785 116.485 288.099 117.171 287.863 118.048L281.018 143.473C280.34 145.989 276.769 145.989 276.092 143.473L269.246 118.048C269.01 117.171 268.324 116.485 267.447 116.249L242.022 109.403C239.506 108.726 239.506 105.155 242.022 104.477L267.447 97.6319C268.324 97.3956 269.01 96.7099 269.246 95.8321L276.092 70.4079Z" fill="white"/>
<path d="M532.304 133.325C532.61 130.307 537.008 130.307 537.314 133.325L538.747 147.48C538.867 148.67 539.808 149.611 540.998 149.731L555.152 151.164C558.171 151.47 558.171 155.868 555.152 156.173L540.998 157.606C539.808 157.727 538.867 158.668 538.747 159.857L537.314 174.012C537.008 177.031 532.61 177.031 532.304 174.012L530.872 159.857C530.751 158.668 529.81 157.727 528.62 157.606L514.466 156.173C511.447 155.868 511.447 151.47 514.466 151.164L528.62 149.731C529.81 149.611 530.751 148.67 530.872 147.48L532.304 133.325Z" fill="white"/>
<path d="M647.903 213.827C648.424 211.399 651.889 211.399 652.41 213.827L655.548 228.441C655.739 229.327 656.431 230.02 657.318 230.21L671.932 233.348C674.36 233.87 674.36 237.334 671.932 237.856L657.318 240.994C656.431 241.184 655.739 241.877 655.548 242.763L652.41 257.377C651.889 259.805 648.424 259.805 647.903 257.377L644.765 242.763C644.574 241.877 643.882 241.184 642.995 240.994L628.381 237.856C625.953 237.334 625.953 233.87 628.381 233.348L642.995 230.21C643.882 230.02 644.574 229.327 644.765 228.441L647.903 213.827Z" fill="white"/>
<path d="M200.016 194.603C200.538 192.175 204.002 192.175 204.523 194.603L207.662 209.216C207.852 210.103 208.545 210.796 209.431 210.986L224.045 214.124C226.473 214.646 226.473 218.11 224.045 218.631L209.431 221.769C208.545 221.96 207.852 222.652 207.662 223.539L204.523 238.153C204.002 240.581 200.538 240.581 200.016 238.153L196.878 223.539C196.688 222.652 195.995 221.96 195.108 221.769L180.495 218.631C178.067 218.11 178.067 214.646 180.495 214.124L195.108 210.986C195.995 210.796 196.688 210.103 196.878 209.216L200.016 194.603Z" fill="white"/>
<defs>
<filter id="filter0_d" x="46.9942" y="241.694" width="237.696" height="222.125" filterUnits="userSpaceOnUse" color-interpolation-filters="sRGB">
<feFlood flood-opacity="0" result="BackgroundImageFix"/>
<feColorMatrix in="SourceAlpha" type="matrix" values="0 0 0 0 0 0 0 0 0 0 0 0 0 0 0 0 0 0 127 0"/>
<feOffset dy="24.2732"/>
<feGaussianBlur stdDeviation="12.1366"/>
<feColorMatrix type="matrix" values="0 0 0 0 1 0 0 0 0 0.421333 0 0 0 0 0.0958334 0 0 0 0.25 0"/>
<feBlend mode="normal" in2="BackgroundImageFix" result="effect1_dropShadow"/>
<feBlend mode="normal" in="SourceGraphic" in2="effect1_dropShadow" result="shape"/>
</filter>
<filter id="filter1_d" x="345.876" y="351.487" width="243.315" height="211.298" filterUnits="userSpaceOnUse" color-interpolation-filters="sRGB">
<feFlood flood-opacity="0" result="BackgroundImageFix"/>
<feColorMatrix in="SourceAlpha" type="matrix" values="0 0 0 0 0 0 0 0 0 0 0 0 0 0 0 0 0 0 127 0"/>
<feOffset dy="24.2732"/>
<feGaussianBlur stdDeviation="12.1366"/>
<feColorMatrix type="matrix" values="0 0 0 0 1 0 0 0 0 0.421333 0 0 0 0 0.0958334 0 0 0 0.25 0"/>
<feBlend mode="normal" in2="BackgroundImageFix" result="effect1_dropShadow"/>
<feBlend mode="normal" in="SourceGraphic" in2="effect1_dropShadow" result="shape"/>
</filter>
<filter id="filter2_d" x="510.566" y="333.188" width="213.787" height="142.018" filterUnits="userSpaceOnUse" color-interpolation-filters="sRGB">
<feFlood flood-opacity="0" result="BackgroundImageFix"/>
<feColorMatrix in="SourceAlpha" type="matrix" values="0 0 0 0 0 0 0 0 0 0 0 0 0 0 0 0 0 0 127 0"/>
<feOffset dy="24.2732"/>
<feGaussianBlur stdDeviation="12.1366"/>
<feColorMatrix type="matrix" values="0 0 0 0 1 0 0 0 0 0.421333 0 0 0 0 0.0958334 0 0 0 0.25 0"/>
<feBlend mode="normal" in2="BackgroundImageFix" result="effect1_dropShadow"/>
<feBlend mode="normal" in="SourceGraphic" in2="effect1_dropShadow" result="shape"/>
</filter>
<linearGradient id="paint0_linear" x1="747.828" y1="461.1" x2="0" y2="461.1" gradientUnits="userSpaceOnUse">
<stop stop-color="#93B1FF"/>
<stop offset="1" stop-color="white" stop-opacity="0"/>
</linearGradient>
<linearGradient id="paint1_linear" x1="240.781" y1="364.47" x2="156.035" y2="321.39" gradientUnits="userSpaceOnUse">
<stop stop-color="#ED9700"/>
<stop offset="1" stop-color="#FCEE21"/>
</linearGradient>
<linearGradient id="paint2_linear" x1="103.309" y1="400.058" x2="247.728" y2="280.452" gradientUnits="userSpaceOnUse">
<stop stop-color="#ED9700"/>
<stop offset="1" stop-color="#FCEE21"/>
</linearGradient>
<linearGradient id="paint3_linear" x1="238.658" y1="271.584" x2="239.683" y2="270.736" gradientUnits="userSpaceOnUse">
<stop stop-color="#ED9700"/>
<stop offset="1" stop-color="#FCEE21"/>
</linearGradient>
<linearGradient id="paint4_linear" x1="239.412" y1="276.953" x2="241.604" y2="275.138" gradientUnits="userSpaceOnUse">
<stop stop-color="#ED9700"/>
<stop offset="1" stop-color="#FCEE21"/>
</linearGradient>
<linearGradient id="paint5_linear" x1="237.357" y1="284.629" x2="242.345" y2="280.498" gradientUnits="userSpaceOnUse">
<stop stop-color="#ED9700"/>
<stop offset="1" stop-color="#FCEE21"/>
</linearGradient>
<linearGradient id="paint6_linear" x1="103.309" y1="400.058" x2="239.524" y2="287.247" gradientUnits="userSpaceOnUse">
<stop stop-color="#ED9700"/>
<stop offset="1" stop-color="#FCEE21"/>
</linearGradient>
<linearGradient id="paint7_linear" x1="454.257" y1="514.928" x2="471.557" y2="421.448" gradientUnits="userSpaceOnUse">
<stop stop-color="#ED9700"/>
<stop offset="1" stop-color="#FCEE21"/>
</linearGradient>
<linearGradient id="paint8_linear" x1="381.173" y1="393.174" x2="536.799" y2="497.782" gradientUnits="userSpaceOnUse">
<stop stop-color="#ED9700"/>
<stop offset="1" stop-color="#FCEE21"/>
</linearGradient>
<linearGradient id="paint9_linear" x1="381.173" y1="393.174" x2="527.958" y2="491.839" gradientUnits="userSpaceOnUse">
<stop stop-color="#ED9700"/>
<stop offset="1" stop-color="#FCEE21"/>
</linearGradient>
<linearGradient id="paint10_linear" x1="660.405" y1="434.015" x2="612.705" y2="371.064" gradientUnits="userSpaceOnUse">
<stop stop-color="#ED9700"/>
<stop offset="1" stop-color="#FCEE21"/>
</linearGradient>
<linearGradient id="paint11_linear" x1="544.75" y1="410.721" x2="696.087" y2="373.745" gradientUnits="userSpaceOnUse">
<stop stop-color="#ED9700"/>
<stop offset="1" stop-color="#FCEE21"/>
</linearGradient>
<linearGradient id="paint12_linear" x1="692.528" y1="363.827" x2="693.601" y2="363.565" gradientUnits="userSpaceOnUse">
<stop stop-color="#ED9700"/>
<stop offset="1" stop-color="#FCEE21"/>
</linearGradient>
<linearGradient id="paint13_linear" x1="691.142" y1="368.113" x2="693.439" y2="367.552" gradientUnits="userSpaceOnUse">
<stop stop-color="#ED9700"/>
<stop offset="1" stop-color="#FCEE21"/>
</linearGradient>
<linearGradient id="paint14_linear" x1="686.821" y1="373.104" x2="692.048" y2="371.827" gradientUnits="userSpaceOnUse">
<stop stop-color="#ED9700"/>
<stop offset="1" stop-color="#FCEE21"/>
</linearGradient>
<linearGradient id="paint15_linear" x1="544.75" y1="410.721" x2="687.49" y2="375.845" gradientUnits="userSpaceOnUse">
<stop stop-color="#ED9700"/>
<stop offset="1" stop-color="#FCEE21"/>
</linearGradient>
<clipPath id="clip0">
<rect width="187.647" height="69.9701" fill="white" transform="translate(71.2675 361.383) rotate(-39.6312)"/>
</clipPath>
<clipPath id="clip1">
<rect width="187.647" height="69.9701" fill="white" transform="translate(409.183 351.487) rotate(33.9079)"/>
</clipPath>
<clipPath id="clip2">
<rect width="155.898" height="58.1314" fill="white" transform="translate(534.839 370.19) rotate(-13.7299)"/>
</clipPath>
</defs>
</svg>
