<svg width="175" height="109" viewBox="0 0 175 109" fill="none" xmlns="http://www.w3.org/2000/svg">
<path d="M87.7003 49.3146H86.5394C76.0915 49.3146 67.5869 40.81 67.5869 30.362V29.6999C67.5869 23.4913 70.889 20.043 76.8826 20.0086H76.8912H76.8998C79.8751 20.0258 82.1969 20.9029 83.8049 22.6141C85.3786 24.2824 86.1869 26.6644 86.2127 29.6999V29.7171C86.2127 30.8263 86.4964 30.8263 87.1156 30.8263C87.6057 30.8263 87.8121 30.7318 87.8465 30.6974C87.8981 30.6458 88.0271 30.3792 88.0271 29.7085V29.6913C88.0529 26.6558 88.8612 24.2652 90.4349 22.6055C92.0429 20.8943 94.3647 20.0258 97.3314 20H97.34H97.3486C103.342 20.043 106.644 23.4827 106.644 29.6913V30.3534C106.661 40.8186 98.1569 49.3146 87.7003 49.3146ZM76.8998 23.6976C72.9528 23.7234 71.2759 25.5207 71.2759 29.6999V30.362C71.2759 38.7806 78.1209 45.6341 86.5394 45.6341H87.7003C96.1189 45.6341 102.964 38.7892 102.964 30.362V29.6999C102.964 25.5207 101.278 23.7234 97.34 23.689C93.479 23.7148 91.7419 25.5809 91.7075 29.7171C91.7075 32.7268 90.0651 34.4724 87.2102 34.5068H87.1156C84.2435 34.5068 82.5236 32.7182 82.5236 29.7171C82.4892 25.5809 80.7522 23.7234 76.8998 23.6976Z" fill="#FFFEFC"/>
<path d="M78.3015 46.9671C77.5533 46.9671 76.8482 46.5113 76.573 45.7632C76.2205 44.8087 76.702 43.751 77.6565 43.3898C85.1808 40.5951 87.3048 34.4639 87.9067 31.0586C88.0959 29.958 88.1045 28.6337 88.1045 28.6251C88.1045 27.6104 88.93 26.7935 89.9447 26.7935H89.9533C90.968 26.7935 91.7936 27.6276 91.7936 28.6423C91.7936 28.7111 91.785 30.2847 91.5356 31.7036C91.1916 33.6384 90.3919 36.5449 88.5087 39.4084C86.2557 42.8309 83.031 45.3333 78.9464 46.8553C78.7314 46.9241 78.5079 46.9671 78.3015 46.9671Z" fill="#FFFEFC"/>
<path d="M57.5775 72.1883C57.5775 73.2202 56.7434 74.0543 55.7115 74.0543H31.866C30.8341 74.0543 30 73.2202 30 72.1883C30 71.1564 30.8341 70.3223 31.866 70.3223H55.7115C56.7434 70.3223 57.5775 71.1564 57.5775 72.1883Z" fill="#FFFEFC"/>
<path d="M51.8763 61.9727H52.5728C53.6047 61.9727 54.4388 61.1385 54.4388 60.1066V59.969C54.4388 58.9371 53.6047 58.103 52.5728 58.103H35.0047C33.9728 58.103 33.1387 58.9371 33.1387 59.969V60.1066C33.1387 61.1385 33.9728 61.9727 35.0047 61.9727H35.5464C36.2946 61.9727 36.9051 62.5832 36.9051 63.3313C36.9051 64.0794 36.2946 64.69 35.5464 64.69H35.0047C33.9728 64.69 33.1387 65.5241 33.1387 66.556V66.6936C33.1387 67.7255 33.9728 68.5596 35.0047 68.5596H52.5642C53.5961 68.5596 54.4302 67.7255 54.4302 66.6936V66.556C54.4302 65.5241 53.5961 64.69 52.5642 64.69H51.8677C51.1195 64.69 50.509 64.0794 50.509 63.3313C50.5176 62.5746 51.1281 61.9727 51.8763 61.9727ZM45.8224 63.3313C45.8224 64.0794 45.2119 64.69 44.4638 64.69H42.9503C42.2022 64.69 41.5917 64.0794 41.5917 63.3313C41.5917 62.5832 42.2022 61.9727 42.9503 61.9727H44.4638C45.2205 61.9727 45.8224 62.5746 45.8224 63.3313Z" fill="#FFFEFC"/>
<path d="M68.2835 63.7354V63.701C68.2835 63.0647 67.7675 62.5487 67.1312 62.5487H60.9312C59.8993 62.5487 59.0652 61.7146 59.0652 60.6827C59.0652 59.6508 59.8993 58.8167 60.9312 58.8167H67.6128C70.4763 58.8167 72.7981 61.1385 72.7981 64.002C72.7981 66.556 70.7257 68.6197 68.1803 68.6197H64.7406C64.1043 68.6197 63.5883 69.1357 63.5883 69.772C63.5883 70.4084 64.1043 70.9243 64.7406 70.9243H71.4996C72.5315 70.9243 73.3656 71.7584 73.3656 72.7903C73.3656 73.8222 72.5315 74.6564 71.4996 74.6564H63.3992C61.0086 74.6564 59.0652 72.7215 59.0652 70.3224V70.1504C59.0652 67.2353 61.43 64.8791 64.3365 64.8791H67.1312C67.7675 64.8877 68.2835 64.3718 68.2835 63.7354ZM82.0078 88.3376H81.9734C81.5004 88.3376 81.0361 88.1571 80.6921 87.8303L76.0055 83.4017C75.1886 82.6278 73.9073 82.6278 73.0904 83.4017L68.4039 87.8045C68.0599 88.1312 67.6042 88.3118 67.1226 88.3118C65.1964 88.3118 64.2677 85.9643 65.6607 84.64L71.8091 78.8356C72.7035 77.9928 73.8815 77.5199 75.1112 77.5199C75.6616 77.5199 76.1861 77.7263 76.5817 78.1046L83.4696 84.6744C84.8627 85.9987 83.9254 88.3376 82.0078 88.3376ZM84.5187 77.6833H84.063C82.8935 77.6833 81.939 76.7288 81.939 75.5593V70.116C81.939 69.4797 81.423 68.9637 80.7867 68.9637H80.7093C80.0729 68.9637 79.557 69.4797 79.557 70.116V73.8566C79.557 75.0261 78.6025 75.9806 77.433 75.9806H76.9772C75.8078 75.9806 74.8533 75.0261 74.8533 73.8566V60.1582C74.8533 58.9887 75.8078 58.0342 76.9772 58.0342C78.4047 58.0342 79.557 59.1865 79.557 60.6139V63.7354C79.557 64.3718 80.0729 64.8877 80.7093 64.8877H80.7867C81.423 64.8877 81.939 64.3718 81.939 63.7354V60.1582C81.939 58.9887 82.8935 58.0342 84.063 58.0342H84.5187C85.6882 58.0342 86.6427 58.9887 86.6427 60.1582V75.5507C86.6427 76.7288 85.6968 77.6833 84.5187 77.6833Z" fill="#FFFEFC"/>
<path d="M104.34 62.7464C104.34 62.8668 104.331 62.9786 104.314 63.099L101.579 81.828C101.407 83.0147 100.393 83.8918 99.1888 83.8918C97.727 83.8918 96.6005 82.6019 96.7983 81.1486L98.9567 65.3606C99.12 64.1911 98.2085 63.1506 97.0304 63.1506H90.3575C89.2482 63.1506 88.3539 62.2563 88.3539 61.147C88.3539 60.0377 89.2482 59.1434 90.3575 59.1434H100.737C102.732 59.152 104.34 60.76 104.34 62.7464ZM114.074 68.3875H115.243C116.353 68.3875 117.247 69.2818 117.247 70.3911V70.4599C117.247 71.5692 116.353 72.4635 115.243 72.4635H114.246C113.18 72.4635 112.32 73.3234 112.32 74.3897V85.9384C112.32 87.2713 111.236 88.3548 109.903 88.3548H109.843C108.51 88.3548 107.427 87.2713 107.427 85.9384V59.8055C107.427 58.4727 108.51 57.3892 109.843 57.3892H109.903C111.236 57.3892 112.32 58.4727 112.32 59.8055V66.6247C112.32 67.5964 113.102 68.3875 114.074 68.3875Z" fill="#FFFEFC"/>
<path d="M144.24 73.7105C144.24 74.837 143.328 75.7485 142.202 75.7485H119.741C118.614 75.7485 117.703 74.837 117.703 73.7105C117.703 72.584 118.614 71.6725 119.741 71.6725H142.202C143.328 71.6725 144.24 72.584 144.24 73.7105ZM139.012 69.5743H126.01C123.301 69.5743 121.099 67.3729 121.099 64.6642V63.3485C121.099 60.4506 123.447 58.103 126.345 58.103H139.003C140.018 58.103 140.835 58.9199 140.835 59.9347V60.1754C140.835 61.1901 140.018 62.007 139.003 62.007H127.781C126.766 62.007 125.949 62.824 125.949 63.8387C125.949 64.8534 126.766 65.6703 127.781 65.6703H139.003C140.018 65.6703 140.835 66.4872 140.835 67.5019V67.7427C140.852 68.7488 140.026 69.5743 139.012 69.5743ZM121.177 83.8059V80.2631C121.177 79.1366 122.088 78.2251 123.215 78.2251H124.032C125.158 78.2251 126.07 79.1366 126.07 80.2631V82.2667C126.07 83.3932 126.981 84.3047 128.108 84.3047H138.926C140.052 84.3047 140.964 85.2162 140.964 86.3427C140.964 87.4692 140.052 88.3807 138.926 88.3807H125.743C123.223 88.3721 121.177 86.3255 121.177 83.8059Z" fill="#FFFEFC"/>
<path d="M52.805 84.9752H38.4186C38.0918 84.9752 37.8252 84.7086 37.8252 84.3819C37.8252 84.0551 38.0918 83.7885 38.4186 83.7885H49.5631C51.5323 83.7885 53.3639 82.4643 53.7079 80.5209C54.155 77.9841 52.2202 75.7827 49.7695 75.7827H34.9273C34.1792 75.7827 33.5686 76.3933 33.5686 77.1414V77.7863C33.5686 78.5344 34.1792 79.145 34.9273 79.145H49.0471C49.3653 79.145 49.6233 79.403 49.6233 79.7211C49.6233 80.0393 49.3653 80.2973 49.0471 80.2973H37.593C35.3745 80.2973 33.5686 82.0945 33.5686 84.3217C33.5686 86.5403 35.3659 88.3461 37.593 88.3461H52.8136C53.5617 88.3461 54.1722 87.7356 54.1722 86.9874V86.3425C54.1636 85.5858 53.5617 84.9752 52.805 84.9752Z" fill="#FFFEFC"/>
</svg>
