<svg width="486" height="486" viewBox="0 0 486 486" fill="none" xmlns="http://www.w3.org/2000/svg">
<g filter="url(#filter0_f)">
<rect x="99.4602" y="109.512" width="143.01" height="97.6998" rx="7.56766" transform="rotate(-20.1435 99.4602 109.512)" fill="#FFE999" stroke="#FFB800" stroke-width="5.06647"/>
<path d="M184.843 122.457L184.252 124.911L184.843 122.457C181.873 121.741 178.764 122.881 176.961 125.348L178.995 126.835L176.961 125.348L131.981 186.881C127.562 192.926 133.667 201.031 140.696 198.452L259.777 154.772C266.807 152.194 266.223 142.064 258.944 140.31L184.843 122.457Z" fill="#FFE999" stroke="#FFB800" stroke-width="5.06647" stroke-linejoin="round"/>
<path d="M181.986 139.042C184.956 139.758 188.065 138.618 189.868 136.151L234.848 74.6176C239.267 68.5729 233.162 60.4684 226.133 63.0469L107.051 106.727C100.022 109.305 100.606 119.435 107.885 121.189L181.986 139.042Z" fill="#FFE999" stroke="#FFB800" stroke-width="5.06647" stroke-linejoin="round"/>
</g>
<g filter="url(#filter1_f)">
<rect x="-1.47299" y="-3.26572" width="95.2418" height="65.6222" rx="5.82431" transform="matrix(0.935304 0.353844 -0.35384 0.935306 33.6457 242.538)" fill="#FFE999" stroke="#FFB800" stroke-width="5.06647"/>
<path d="M71.321 282.503C69.9527 280.59 67.5689 279.689 65.2775 280.216L16.7215 291.397C11.1058 292.691 10.5777 300.482 15.9675 302.521L93.52 331.86C98.9098 333.899 103.671 327.709 100.317 323.023L71.321 282.503Z" fill="#FFE999" stroke="#FFB800" stroke-width="5.06647" stroke-linejoin="round"/>
<path d="M61.3875 290.501C62.7558 292.413 65.1396 293.315 67.4309 292.787L115.987 281.606C121.602 280.313 122.13 272.522 116.741 270.483L39.1884 241.143C33.7986 239.104 29.0375 245.294 32.391 249.98L61.3875 290.501Z" fill="#FFE999" stroke="#FFB800" stroke-width="5.06647" stroke-linejoin="round"/>
</g>
<mask id="path-7-outside-1" maskUnits="userSpaceOnUse" x="177.754" y="185.772" width="302.742" height="299.912" fill="black">
<rect fill="white" x="177.754" y="185.772" width="302.742" height="299.912"/>
<path fill-rule="evenodd" clip-rule="evenodd" d="M371.6 239.956C369.768 237.33 366.536 236.063 363.406 236.744L247.97 261.871C244.451 261.424 240.944 263.395 239.59 266.848L192.099 387.972C190.499 392.051 192.51 396.654 196.589 398.253L384.183 471.807C388.261 473.407 392.865 471.396 394.464 467.317L441.956 346.194C443.309 342.741 442.077 338.914 439.194 336.849L371.6 239.956Z"/>
</mask>
<path fill-rule="evenodd" clip-rule="evenodd" d="M371.6 239.956C369.768 237.33 366.536 236.063 363.406 236.744L247.97 261.871C244.451 261.424 240.944 263.395 239.59 266.848L192.099 387.972C190.499 392.051 192.51 396.654 196.589 398.253L384.183 471.807C388.261 473.407 392.865 471.396 394.464 467.317L441.956 346.194C443.309 342.741 442.077 338.914 439.194 336.849L371.6 239.956Z" fill="#FFE999"/>
<path d="M363.406 236.744L365.18 244.891L365.18 244.891L363.406 236.744ZM371.6 239.956L364.761 244.727L364.761 244.727L371.6 239.956ZM247.97 261.871L246.919 270.143C247.861 270.263 248.816 270.221 249.744 270.019L247.97 261.871ZM439.194 336.849L432.355 341.62C432.898 342.398 433.569 343.077 434.34 343.629L439.194 336.849ZM365.18 244.891C365.02 244.926 364.855 244.861 364.761 244.727L378.439 235.186C374.68 229.798 368.051 227.199 361.633 228.596L365.18 244.891ZM249.744 270.019L365.18 244.891L361.633 228.596L246.197 253.724L249.744 270.019ZM247.353 269.892C247.341 269.922 247.317 269.965 247.281 270.008C247.246 270.047 247.21 270.076 247.176 270.096C247.115 270.132 247.028 270.157 246.919 270.143L249.022 253.6C241.805 252.683 234.609 256.711 231.828 263.804L247.353 269.892ZM199.862 391.015L247.353 269.892L231.828 263.804L184.336 384.928L199.862 391.015ZM199.632 390.49C199.841 390.572 199.943 390.807 199.862 391.015L184.336 384.928C181.056 393.294 185.179 402.736 193.545 406.016L199.632 390.49ZM387.226 464.044L199.632 390.49L193.545 406.016L381.139 479.57L387.226 464.044ZM386.701 464.274C386.783 464.065 387.018 463.963 387.226 464.044L381.139 479.57C389.505 482.85 398.946 478.727 402.227 470.361L386.701 464.274ZM434.193 343.15L386.701 464.274L402.227 470.361L449.718 349.237L434.193 343.15ZM434.34 343.629C434.251 343.565 434.204 343.488 434.184 343.42C434.173 343.383 434.165 343.337 434.167 343.284C434.169 343.228 434.181 343.18 434.193 343.15L449.718 349.237C452.499 342.146 449.961 334.303 444.048 330.07L434.34 343.629ZM364.761 244.727L432.355 341.62L446.032 332.079L378.439 235.186L364.761 244.727Z" fill="#FFB800" mask="url(#path-7-outside-1)"/>
<rect x="262.949" y="230.626" width="197.144" height="165.412" rx="12.1021" transform="rotate(21.4097 262.949 230.626)" fill="white" stroke="#DEDEDE" stroke-width="8.33822"/>
<path d="M300.557 359.107L244.087 270.313L241.967 269.482L198.53 380.266L300.557 359.107Z" fill="#FFE899"/>
<path d="M333.633 370.372L435.406 343.625L437.525 344.456L394.088 455.239L333.633 370.372Z" fill="#FFE899"/>
<line x1="242.225" y1="262.574" x2="314.609" y2="377.87" stroke="#FFB800" stroke-width="8.33822" stroke-linejoin="round"/>
<line x1="309.922" y1="376.081" x2="442.539" y2="337.756" stroke="#FFB800" stroke-width="8.33823" stroke-linejoin="round"/>
<path d="M327.528 358.695C324.733 354.688 319.802 352.754 315.028 353.794L197.671 379.339C185.971 381.886 184.679 398.061 195.827 402.432L381.903 475.391C393.051 479.761 403.097 467.02 396.246 457.199L327.528 358.695Z" fill="#FFE999" stroke="#FFB800" stroke-width="8.33822" stroke-linejoin="round"/>
<defs>
<filter id="filter0_f" x="91.1431" y="51.9467" width="184.542" height="157.607" filterUnits="userSpaceOnUse" color-interpolation-filters="sRGB">
<feFlood flood-opacity="0" result="BackgroundImageFix"/>
<feBlend mode="normal" in="SourceGraphic" in2="BackgroundImageFix" result="shape"/>
<feGaussianBlur stdDeviation="2.53324" result="effect1_foregroundBlur"/>
</filter>
<filter id="filter1_f" x="1.75271" y="230.512" width="129.202" height="111.98" filterUnits="userSpaceOnUse" color-interpolation-filters="sRGB">
<feFlood flood-opacity="0" result="BackgroundImageFix"/>
<feBlend mode="normal" in="SourceGraphic" in2="BackgroundImageFix" result="shape"/>
<feGaussianBlur stdDeviation="3.79985" result="effect1_foregroundBlur"/>
</filter>
</defs>
</svg>
