<svg width="996" height="260" viewBox="0 0 996 260" fill="none" xmlns="http://www.w3.org/2000/svg">
<g opacity="0.3">
<rect width="995.263" height="258.651" rx="16.5877" transform="matrix(1 0 0 -1 0.402832 259.177)" fill="#FFD600"/>
<g opacity="0.4">
<path d="M243.777 219.18V202.21H281.268V219.18L262.522 228.99L243.777 219.18Z" fill="#FFE500" stroke="#FFA800" stroke-width="6.31215" stroke-linecap="round" stroke-linejoin="round"/>
<path d="M233.065 194.176L262.523 180.786L291.98 194.176L262.523 210.243L233.065 194.176Z" fill="#FFE500" stroke="#FFA800" stroke-width="6.31215" stroke-linejoin="round"/>
<path d="M291.98 194.176L291.98 212.922" stroke="#FFA800" stroke-width="6.31215" stroke-linecap="round" stroke-linejoin="round"/>
</g>
<g opacity="0.4">
<path d="M56.6974 219.18V202.21H94.1884V219.18L75.4429 228.99L56.6974 219.18Z" fill="#FFE500" stroke="#FFA800" stroke-width="6.31215" stroke-linecap="round" stroke-linejoin="round"/>
<path d="M45.9858 194.176L75.443 180.786L104.9 194.176L75.443 210.243L45.9858 194.176Z" fill="#FFE500" stroke="#FFA800" stroke-width="6.31215" stroke-linejoin="round"/>
<path d="M104.9 194.176L104.9 212.922" stroke="#FFA800" stroke-width="6.31215" stroke-linecap="round" stroke-linejoin="round"/>
</g>
<g opacity="0.4">
<path d="M800.027 219.18V202.21H837.518V219.18L818.772 228.99L800.027 219.18Z" fill="#FFE500" stroke="#FFA800" stroke-width="6.31215" stroke-linecap="round" stroke-linejoin="round"/>
<path d="M789.315 194.176L818.772 180.786L848.23 194.176L818.772 210.243L789.315 194.176Z" fill="#FFE500" stroke="#FFA800" stroke-width="6.31215" stroke-linejoin="round"/>
<path d="M848.229 194.176L848.229 212.922" stroke="#FFA800" stroke-width="6.31215" stroke-linecap="round" stroke-linejoin="round"/>
</g>
<g opacity="0.4">
<path d="M433.899 219.18V202.21H471.39V219.18L452.644 228.99L433.899 219.18Z" fill="#FFE500" stroke="#FFA800" stroke-width="6.31215" stroke-linecap="round" stroke-linejoin="round"/>
<path d="M423.187 194.176L452.645 180.786L482.102 194.176L452.645 210.243L423.187 194.176Z" fill="#FFE500" stroke="#FFA800" stroke-width="6.31215" stroke-linejoin="round"/>
<path d="M482.102 194.176L482.102 212.922" stroke="#FFA800" stroke-width="6.31215" stroke-linecap="round" stroke-linejoin="round"/>
</g>
<g opacity="0.4">
<path d="M624.021 219.18V202.21H661.512V219.18L642.767 228.99L624.021 219.18Z" fill="#FFE500" stroke="#FFA800" stroke-width="6.31215" stroke-linecap="round" stroke-linejoin="round"/>
<path d="M613.309 194.176L642.766 180.786L672.224 194.176L642.766 210.243L613.309 194.176Z" fill="#FFE500" stroke="#FFA800" stroke-width="6.31215" stroke-linejoin="round"/>
<path d="M672.224 194.176L672.224 212.922" stroke="#FFA800" stroke-width="6.31215" stroke-linecap="round" stroke-linejoin="round"/>
</g>
<g opacity="0.4">
<path d="M329.818 141.906V124.936H367.309V141.906L348.563 151.715L329.818 141.906Z" fill="#FFE500" stroke="#FFA800" stroke-width="6.31215" stroke-linecap="round" stroke-linejoin="round"/>
<path d="M319.106 116.903L348.563 103.513L378.02 116.903L348.563 132.97L319.106 116.903Z" fill="#FFE500" stroke="#FFA800" stroke-width="6.31215" stroke-linejoin="round"/>
<path d="M378.02 116.903L378.02 135.648" stroke="#FFA800" stroke-width="6.31215" stroke-linecap="round" stroke-linejoin="round"/>
</g>
<g opacity="0.4">
<path d="M142.738 141.906V124.936H180.229V141.906L161.484 151.715L142.738 141.906Z" fill="#FFE500" stroke="#FFA800" stroke-width="6.31215" stroke-linecap="round" stroke-linejoin="round"/>
<path d="M132.026 116.903L161.484 103.513L190.941 116.903L161.484 132.97L132.026 116.903Z" fill="#FFE500" stroke="#FFA800" stroke-width="6.31215" stroke-linejoin="round"/>
<path d="M190.941 116.903L190.941 135.648" stroke="#FFA800" stroke-width="6.31215" stroke-linecap="round" stroke-linejoin="round"/>
</g>
<g opacity="0.4">
<path d="M886.067 141.906V124.936H923.558V141.906L904.813 151.715L886.067 141.906Z" fill="#FFE500" stroke="#FFA800" stroke-width="6.31215" stroke-linecap="round" stroke-linejoin="round"/>
<path d="M875.356 116.903L904.813 103.513L934.27 116.903L904.813 132.97L875.356 116.903Z" fill="#FFE500" stroke="#FFA800" stroke-width="6.31215" stroke-linejoin="round"/>
<path d="M934.27 116.903L934.27 135.648" stroke="#FFA800" stroke-width="6.31215" stroke-linecap="round" stroke-linejoin="round"/>
</g>
<g opacity="0.4">
<path d="M522.715 141.906V124.936H560.206V141.906L541.461 151.715L522.715 141.906Z" fill="#FFE500" stroke="#FFA800" stroke-width="6.31215" stroke-linecap="round" stroke-linejoin="round"/>
<path d="M512.003 116.903L541.461 103.513L570.918 116.903L541.461 132.97L512.003 116.903Z" fill="#FFE500" stroke="#FFA800" stroke-width="6.31215" stroke-linejoin="round"/>
<path d="M570.918 116.903L570.918 135.648" stroke="#FFA800" stroke-width="6.31215" stroke-linecap="round" stroke-linejoin="round"/>
</g>
<g opacity="0.4">
<path d="M710.062 141.906V124.936H747.553V141.906L728.807 151.715L710.062 141.906Z" fill="#FFE500" stroke="#FFA800" stroke-width="6.31215" stroke-linecap="round" stroke-linejoin="round"/>
<path d="M699.35 116.903L728.807 103.513L758.264 116.903L728.807 132.97L699.35 116.903Z" fill="#FFE500" stroke="#FFA800" stroke-width="6.31215" stroke-linejoin="round"/>
<path d="M758.264 116.903L758.264 135.648" stroke="#FFA800" stroke-width="6.31215" stroke-linecap="round" stroke-linejoin="round"/>
</g>
<g opacity="0.4">
<path d="M415.858 64.6321V47.6621H453.349V64.6321L434.604 74.4414L415.858 64.6321Z" fill="#FFE500" stroke="#FFA800" stroke-width="6.31215" stroke-linecap="round" stroke-linejoin="round"/>
<path d="M405.147 39.6279L434.604 26.2383L464.061 39.6279L434.604 55.6955L405.147 39.6279Z" fill="#FFE500" stroke="#FFA800" stroke-width="6.31215" stroke-linejoin="round"/>
<path d="M464.061 39.6284L464.061 58.3739" stroke="#FFA800" stroke-width="6.31215" stroke-linecap="round" stroke-linejoin="round"/>
</g>
<g opacity="0.4">
<path d="M239.614 64.6321V47.6621H277.105V64.6321L258.359 74.4414L239.614 64.6321Z" fill="#FFE500" stroke="#FFA800" stroke-width="6.31215" stroke-linecap="round" stroke-linejoin="round"/>
<path d="M228.902 39.6279L258.359 26.2383L287.816 39.6279L258.359 55.6955L228.902 39.6279Z" fill="#FFE500" stroke="#FFA800" stroke-width="6.31215" stroke-linejoin="round"/>
<path d="M287.816 39.6284L287.816 58.3739" stroke="#FFA800" stroke-width="6.31215" stroke-linecap="round" stroke-linejoin="round"/>
</g>
<g opacity="0.4">
<path d="M52.5342 64.6321V47.6621H90.0252V64.6321L71.2797 74.4414L52.5342 64.6321Z" fill="#FFE500" stroke="#FFA800" stroke-width="6.31215" stroke-linecap="round" stroke-linejoin="round"/>
<path d="M41.8225 39.6279L71.2797 26.2383L100.737 39.6279L71.2797 55.6955L41.8225 39.6279Z" fill="#FFE500" stroke="#FFA800" stroke-width="6.31215" stroke-linejoin="round"/>
<path d="M100.737 39.6284L100.737 58.3739" stroke="#FFA800" stroke-width="6.31215" stroke-linecap="round" stroke-linejoin="round"/>
</g>
<g opacity="0.4">
<path d="M795.864 64.6321V47.6621H833.355V64.6321L814.609 74.4414L795.864 64.6321Z" fill="#FFE500" stroke="#FFA800" stroke-width="6.31215" stroke-linecap="round" stroke-linejoin="round"/>
<path d="M785.152 39.6279L814.609 26.2383L844.066 39.6279L814.609 55.6955L785.152 39.6279Z" fill="#FFE500" stroke="#FFA800" stroke-width="6.31215" stroke-linejoin="round"/>
<path d="M844.066 39.6284L844.066 58.3739" stroke="#FFA800" stroke-width="6.31215" stroke-linecap="round" stroke-linejoin="round"/>
</g>
<g opacity="0.4">
<path d="M605.98 64.6321V47.6621H643.471V64.6321L624.726 74.4414L605.98 64.6321Z" fill="#FFE500" stroke="#FFA800" stroke-width="6.31215" stroke-linecap="round" stroke-linejoin="round"/>
<path d="M595.269 39.6279L624.726 26.2383L654.183 39.6279L624.726 55.6955L595.269 39.6279Z" fill="#FFE500" stroke="#FFA800" stroke-width="6.31215" stroke-linejoin="round"/>
<path d="M654.183 39.6284L654.183 58.3739" stroke="#FFA800" stroke-width="6.31215" stroke-linecap="round" stroke-linejoin="round"/>
</g>
</g>
</svg>
