<svg width="34" height="32" viewBox="0 0 34 32" fill="none" xmlns="http://www.w3.org/2000/svg">
<path d="M14.8534 1.34949C15.7315 -0.429688 18.2685 -0.429688 19.1466 1.34949L22.3209 7.78129C22.6696 8.48781 23.3436 8.9775 24.1233 9.0908L31.2212 10.1222C33.1846 10.4075 33.9686 12.8204 32.5478 14.2053L27.4117 19.2117C26.8476 19.7617 26.5901 20.554 26.7233 21.3305L27.9358 28.3998C28.2712 30.3553 26.2186 31.8465 24.4625 30.9233L18.1139 27.5856C17.4165 27.219 16.5834 27.219 15.8861 27.5856L9.53748 30.9233C7.78133 31.8465 5.72881 30.3553 6.06421 28.3998L7.27668 21.3306C7.40986 20.554 7.15242 19.7617 6.58823 19.2117L1.45213 14.2053C0.0313711 12.8204 0.815363 10.4075 2.7788 10.1222L9.87672 9.0908C10.6564 8.9775 11.3304 8.48781 11.6791 7.78129L14.8534 1.34949Z" fill="#FFD600"/>
</svg>
