<svg width="451" height="264" viewBox="0 0 451 264" fill="none" xmlns="http://www.w3.org/2000/svg">
<g clip-path="url(#clip0)">
<path d="M162.409 112.885L160.694 113.931C158.408 115.329 154.113 116.212 149.827 116.098C147.672 116.041 145.443 116.057 143.173 116.147L38.4957 120.349C38.2181 120.357 37.9405 120.374 37.6629 120.39C33.8664 120.578 30.2822 120.047 28.2002 118.984L26.8939 118.322C23.6118 116.654 16.9005 116.392 11.8957 117.741L10.0342 118.24C5.03751 119.581 3.64137 122.025 6.92351 123.693L7.30724 123.889C9.55248 125.034 9.65046 126.588 7.61749 127.928C4.50681 129.972 2.7596 132.278 2.85758 134.665L6.62959 228.991C6.7194 231.305 8.53192 233.406 11.6099 235.164C13.6592 236.333 13.6592 237.87 11.5446 239.17C8.40945 241.091 9.9852 243.413 15.0799 244.353L16.974 244.705C22.0687 245.645 28.7391 244.844 31.8743 242.922L32.3723 242.612C34.3645 241.385 37.916 240.551 41.7125 240.453C42.235 240.437 42.7657 240.421 43.2964 240.404L147.974 236.202C150.439 236.104 152.84 235.916 155.15 235.662C159.478 235.18 163.919 235.728 166.352 236.962L167.389 237.486C170.671 239.153 177.382 239.415 182.387 238.066L184.249 237.567C189.245 236.226 190.641 233.782 187.359 232.114L182.697 229.743C180.828 228.795 180.509 227.552 181.628 226.366C182.975 224.944 183.677 223.431 183.612 221.894L179.84 127.569C179.774 125.958 178.876 124.454 177.301 123.088C176.002 121.968 176.198 120.652 178.044 119.524L182.746 116.646C185.882 114.724 184.306 112.402 179.211 111.462L177.317 111.111C172.222 110.162 165.552 110.963 162.409 112.885Z" fill="#CCFBFF" stroke="#84B2D8" stroke-width="5.07692" stroke-miterlimit="10" stroke-linecap="round" stroke-linejoin="round"/>
<path d="M31.4171 145.866C31.4171 145.866 68.3778 148.908 70.0107 167.418L31.4171 145.866Z" fill="#CCFBFF"/>
<path d="M31.4171 145.866C31.4171 145.866 68.3778 148.908 70.0107 167.418" stroke="#84B2D8" stroke-width="5.07692" stroke-miterlimit="10" stroke-linecap="round" stroke-linejoin="round"/>
<path d="M28.8044 208.347C28.8044 208.347 56.0168 183.124 70.7456 194.415L28.8044 208.347Z" fill="#CCFBFF"/>
<path d="M28.8044 208.347C28.8044 208.347 56.0168 183.124 70.7456 194.415" stroke="#84B2D8" stroke-width="5.07692" stroke-miterlimit="10" stroke-linecap="round" stroke-linejoin="round"/>
<path d="M243.725 20.5509C342.655 25.8243 342.842 88.9178 340.311 136.559C338.099 178.248 330.906 246.925 231.985 241.652C133.063 236.378 46.6909 182.148 49.9322 121.09C53.1735 60.0323 144.804 15.2774 243.725 20.5509Z" fill="white"/>
<path d="M343.741 136.747C342.418 161.642 339.266 187.576 325.272 208.621C317.043 220.999 305.743 230.369 291.7 236.468C275.632 243.442 255.482 246.345 231.805 245.086C207.279 243.777 183.234 239.534 160.341 232.462C138.06 225.586 118.024 216.405 100.781 205.171C83.2435 193.749 69.6087 180.856 60.2522 166.85C50.3078 151.962 45.6867 136.501 46.5113 120.902C47.3441 105.302 53.5736 90.422 65.0448 76.6701C75.8301 63.7358 90.7548 52.3713 109.403 42.8791C127.74 33.5422 148.633 26.5436 171.518 22.0714C195.032 17.4766 219.395 15.8087 243.913 17.1086C267.688 18.3759 287.405 23.1016 302.526 31.1548C315.973 38.3169 326.252 48.3651 333.086 61.0214C338.76 71.5193 342.197 83.8567 343.618 98.7369C344.884 112.08 344.345 125.349 343.741 136.747ZM53.3613 121.278C52.6102 135.365 56.8476 149.411 65.951 163.04C74.785 176.269 87.7585 188.508 104.512 199.415C121.217 210.297 140.681 219.209 162.358 225.897C184.712 232.797 208.201 236.951 232.164 238.226C254.772 239.428 273.885 236.722 288.965 230.173C301.775 224.605 312.07 216.077 319.557 204.819C332.637 185.148 335.617 160.301 336.882 136.387C338.205 111.565 338.532 85.5573 327.044 64.3081C320.774 52.7065 311.695 43.852 299.293 37.2377C285.062 29.6587 266.308 25.1946 243.537 23.9846C219.575 22.7091 195.783 24.3361 172.816 28.8247C150.56 33.1743 130.263 39.9685 112.497 49.011C94.682 58.0781 80.4839 68.8703 70.2945 81.0851C59.8113 93.6678 54.1125 107.191 53.3613 121.278Z" fill="#564646"/>
<path d="M122.758 124.7C123.358 111.591 117.936 100.693 110.647 100.359C103.359 100.024 96.9637 110.379 96.3636 123.488C95.7634 136.597 101.185 147.495 108.474 147.83C115.762 148.164 122.157 137.809 122.758 124.7Z" fill="white"/>
<path d="M126.173 124.859C125.854 131.776 124.033 138.259 121.029 143.116C117.649 148.594 113.126 151.488 108.3 151.267C103.475 151.047 99.2378 147.752 96.3721 141.988C93.8248 136.878 92.6001 130.255 92.9185 123.338C93.2369 116.422 95.0576 109.938 98.0621 105.082C101.442 99.6037 105.965 96.7095 110.791 96.9302C115.616 97.151 119.853 100.446 122.719 106.21C125.266 111.32 126.491 117.942 126.173 124.859ZM99.7767 123.649C99.2297 135.61 103.998 144.187 108.619 144.4C113.24 144.612 118.776 136.51 119.323 124.548C119.87 112.587 115.101 104.011 110.48 103.798C105.851 103.585 100.324 111.688 99.7767 123.649Z" fill="#564646"/>
<path d="M50.0385 121.368C49.5894 131.236 51.2631 140.925 54.831 150.286C74.0585 150.123 79.0878 137.908 79.7818 122.733C80.4758 107.551 76.5813 94.9272 57.4518 93.0059C53.043 101.999 50.4875 111.5 50.0385 121.368Z" fill="#FF3333"/>
<path d="M83.2109 122.889C82.7782 132.389 80.8024 139.159 76.9977 144.211C72.3031 150.441 64.8571 153.638 54.8637 153.72L52.4796 153.736L51.6305 151.504C47.834 141.554 46.144 131.359 46.6094 121.204C47.0747 111.05 49.6874 101.051 54.3738 91.4849L55.427 89.3428L57.7947 89.5799C67.7391 90.5773 74.8586 94.4445 78.9653 101.075C82.2965 106.463 83.6518 113.388 83.2109 122.889ZM57.1987 146.762C63.7875 146.296 68.4821 144.097 71.5193 140.074C74.4095 136.24 75.9935 130.517 76.3609 122.578C76.7201 114.639 75.6669 108.793 73.144 104.713C70.4906 100.429 66.0083 97.8048 59.493 96.742C55.8761 104.771 53.8513 113.094 53.4676 121.531C53.0757 129.952 54.333 138.431 57.1987 146.762Z" fill="#C20400"/>
<path d="M98.6987 163.471C100.208 163.175 101.102 161.257 100.697 159.188C100.292 157.119 98.7404 155.682 97.2315 155.978C95.7227 156.274 94.8279 158.192 95.2331 160.261C95.6382 162.33 97.1899 163.767 98.6987 163.471Z" fill="black"/>
<path d="M101.524 159.026C102.055 161.749 100.895 164.275 98.9357 164.659C96.9762 165.044 94.9433 163.147 94.4126 160.424C93.8819 157.702 95.0412 155.175 97.0007 154.791C98.9602 154.407 100.985 156.312 101.524 159.026ZM96.0618 160.097C96.3394 161.503 97.4171 162.484 98.4622 162.28C99.5154 162.076 100.144 160.759 99.8665 159.353C99.5889 157.947 98.5111 156.966 97.4661 157.17C96.4129 157.375 95.7842 158.691 96.0618 160.097Z" fill="black"/>
<path d="M99.1889 86.7487C99.6508 84.7007 98.8166 82.7671 97.3256 82.4299C95.8346 82.0927 94.2514 83.4795 93.7895 85.5276C93.3276 87.5756 94.1618 89.5092 95.6528 89.8464C97.1438 90.1837 98.727 88.7968 99.1889 86.7487Z" fill="black"/>
<path d="M100.005 86.923C99.4011 89.6129 97.3273 91.4525 95.3841 91.011C93.441 90.5695 92.3551 88.0267 92.9675 85.3287C93.5716 82.6388 95.6454 80.7992 97.5886 81.2407C99.5317 81.6822 100.618 84.2331 100.005 86.923ZM94.6004 85.7048C94.2901 87.0947 94.8779 88.4274 95.9148 88.6563C96.9517 88.8934 98.0539 87.945 98.3724 86.5551C98.6826 85.1652 98.0948 83.8325 97.0579 83.6036C96.021 83.3665 94.9188 84.3067 94.6004 85.7048Z" fill="black"/>
<path d="M232.374 124.558L219.915 166.925C218.804 170.703 214.845 172.861 211.081 171.749L132.032 148.44C128.26 147.328 126.105 143.362 127.215 139.593L139.674 97.2259C140.784 93.4486 144.744 91.2902 148.508 92.4021L227.557 115.712C231.329 116.815 233.484 120.781 232.374 124.558Z" fill="#DDDDDD" stroke="#B7B6B6" stroke-width="5.8022" stroke-miterlimit="10"/>
<path d="M159.579 153.517L178.186 159.003L181.337 105.328L162.722 99.8423L159.579 153.517Z" fill="white"/>
<path d="M140.539 143.191C142.514 143.191 144.115 141.588 144.115 139.61C144.115 137.632 142.514 136.029 140.539 136.029C138.564 136.029 136.963 137.632 136.963 139.61C136.963 141.588 138.564 143.191 140.539 143.191Z" fill="#564646"/>
<path d="M300.953 49.0282C310.595 66.958 316.841 84.7896 317.102 85.5336C317.535 86.7846 317.184 88.1745 316.196 89.0575C315.208 89.9405 313.796 90.1449 312.596 89.5725C305.141 86.016 288.322 88.06 266.458 95.1894C246.79 101.599 229.44 110.11 224.035 114.632C223.668 114.934 223.3 115.237 222.941 115.523C217.569 119.733 212.686 121.499 208.424 120.772C205.208 120.224 203.346 118.393 202.579 117.452C201.591 116.61 200.774 115.605 200.162 114.468C198.733 111.811 198.562 108.753 198.962 105.859C195.614 107.772 193.377 108.418 193.222 108.459C193.018 108.516 192.814 108.557 192.602 108.573C182.674 109.375 176.224 107.143 173.423 101.943C170.9 97.2497 172.166 91.3304 174.076 86.5638C164.254 88.7141 156.768 84.3236 155.69 83.645C153.045 82.1488 151.085 80.2275 149.852 77.9382C146.823 72.305 148.309 65.0448 154.261 56.362C158.066 50.8106 162.458 46.5264 163.185 45.8396C174.917 32.9871 187.76 23.2823 201.37 16.9868C212.343 11.9096 223.831 9.03987 235.506 8.44302C254.481 7.47827 267.617 12.8335 269.332 13.5693C279.488 16.9787 290.135 28.9073 300.953 49.0282Z" fill="white"/>
<path d="M152.726 76.3934C146.937 65.6257 165.52 48.1456 165.52 48.1456C215.732 -6.96818 268.148 16.652 268.148 16.652C279.284 20.2739 289.874 35.3503 298.071 50.5902C307.697 68.4954 314.016 86.6214 314.016 86.6214C294.919 77.5053 234.306 101.804 221.945 112.122C221.602 112.408 221.259 112.686 220.924 112.948C209.331 122.039 204.946 115.163 204.946 115.163C204.114 114.518 203.501 113.757 203.052 112.923C201.681 110.364 201.909 107.102 202.636 104.191C203.118 102.262 200.954 100.749 199.288 101.837C195.173 104.518 192.34 105.312 192.34 105.312C182.772 106.08 178.159 103.832 176.313 100.39C174.06 96.2036 175.93 90.2515 177.971 85.8856C178.779 84.1523 177.171 82.2555 175.342 82.8278C165.185 85.9919 157.372 80.8329 157.372 80.8329C155.118 79.582 153.632 78.0694 152.726 76.3934ZM146.962 79.5002C148.481 82.3291 150.856 84.6756 154.016 86.4743C154.996 87.0793 158.384 89.0006 163.258 89.9081C165.308 90.2924 167.365 90.4559 169.414 90.3987C168.206 95.4596 168.582 99.85 170.541 103.496C171.774 105.794 174.297 108.893 179.285 110.626C182.927 111.893 187.368 112.294 192.863 111.852C193.287 111.82 193.704 111.746 194.112 111.632C194.3 111.582 194.847 111.419 195.68 111.092C195.941 112.874 196.472 114.518 197.288 116.03C198.039 117.428 199.019 118.671 200.203 119.734C201.746 121.557 204.375 123.413 207.886 124.018C213.095 124.909 218.842 122.922 224.974 118.115C225.358 117.812 225.758 117.494 226.15 117.167C231.212 112.94 248.455 104.535 267.495 98.3293C277.431 95.0917 286.665 92.8351 294.201 91.8213C304.692 90.4069 309.362 91.6741 311.208 92.5571C313.592 93.6936 316.433 93.2848 318.401 91.5188C320.368 89.7528 321.087 86.973 320.213 84.4712C319.952 83.7108 313.616 65.642 303.851 47.4915C298.993 38.4572 294.087 30.919 289.278 25.0977C282.942 17.4369 276.794 12.6622 270.491 10.5283C268.099 9.52263 254.513 4.21647 235.343 5.19757C223.251 5.81077 211.364 8.7868 200.007 14.0357C186.021 20.5029 172.852 30.4366 160.842 43.5753C159.837 44.54 155.404 48.9305 151.567 54.5392C148.897 58.4309 147.027 62.1509 146.015 65.6012C144.472 70.7847 144.79 75.4695 146.962 79.5002Z" fill="#564646"/>
<path d="M263.242 212.999C272.884 195.069 279.13 177.237 279.392 176.493C279.824 175.242 279.473 173.852 278.485 172.969C277.497 172.086 276.085 171.882 274.885 172.454C267.431 176.011 250.612 173.967 228.747 166.838C209.079 160.428 191.729 151.916 186.324 147.395C185.957 147.093 185.589 146.79 185.23 146.504C179.858 142.293 174.976 140.527 170.714 141.255C167.497 141.803 165.635 143.634 164.868 144.575C163.88 145.417 163.064 146.422 162.451 147.559C161.022 150.216 160.851 153.274 161.251 156.168C157.904 154.255 155.666 153.609 155.511 153.568C155.307 153.511 155.103 153.47 154.891 153.454C144.963 152.652 138.513 154.884 135.712 160.084C133.19 164.777 134.455 170.697 136.366 175.463C126.544 173.313 119.057 177.703 117.979 178.382C115.334 179.878 113.374 181.799 112.141 184.089C109.112 189.722 110.598 196.982 116.55 205.665C120.355 211.216 124.747 215.501 125.474 216.187C137.206 229.04 150.049 238.745 163.66 245.04C174.633 250.117 186.12 252.987 197.795 253.584C216.77 254.549 229.906 249.193 231.621 248.458C241.778 245.048 252.424 233.128 263.242 212.999Z" fill="white"/>
<path d="M115.015 185.642C109.227 196.41 127.809 213.89 127.809 213.89C178.021 269.004 230.437 245.384 230.437 245.384C241.573 241.762 252.163 226.685 260.36 211.445C269.986 193.54 276.305 175.414 276.305 175.414C257.209 184.53 196.595 160.232 184.234 149.914C183.891 149.627 183.548 149.349 183.214 149.088C171.62 139.996 167.236 146.872 167.236 146.872C166.403 147.518 165.79 148.278 165.341 149.112C163.97 151.671 164.198 154.934 164.925 157.844C165.407 159.774 163.243 161.286 161.578 160.199C157.463 157.517 154.63 156.724 154.63 156.724C145.061 155.956 140.448 158.204 138.603 161.646C136.349 165.832 138.219 171.784 140.26 176.15C141.068 177.883 139.46 179.78 137.631 179.208C127.474 176.044 119.661 181.203 119.661 181.203C117.408 182.454 115.922 183.966 115.015 185.642ZM109.251 182.527C110.77 179.698 113.146 177.352 116.305 175.553C117.285 174.948 120.673 173.027 125.548 172.119C127.597 171.735 129.654 171.572 131.704 171.629C130.495 166.568 130.871 162.177 132.83 158.531C134.063 156.234 136.586 153.135 141.574 151.402C145.216 150.134 149.657 149.734 155.152 150.175C155.577 150.208 155.993 150.281 156.401 150.396C156.589 150.445 157.136 150.609 157.969 150.936C158.23 149.153 158.761 147.51 159.577 145.997C160.328 144.599 161.308 143.356 162.492 142.294C164.035 140.47 166.664 138.614 170.175 138.009C175.384 137.118 181.132 139.105 187.263 143.912C187.647 144.215 188.047 144.534 188.439 144.861C193.501 149.088 210.744 157.493 229.784 163.698C239.72 166.936 248.954 169.192 256.49 170.206C266.981 171.621 271.652 170.353 273.497 169.47C275.881 168.334 278.722 168.743 280.69 170.509C282.657 172.275 283.376 175.054 282.502 177.556C282.241 178.317 275.905 196.385 266.141 214.536C261.283 223.57 256.376 231.108 251.567 236.93C245.231 244.591 239.083 249.365 232.78 251.499C230.388 252.505 216.802 257.811 197.632 256.83C185.54 256.217 173.653 253.241 162.296 247.992C148.31 241.525 135.141 231.591 123.131 218.452C122.127 217.487 117.693 213.097 113.856 207.488C111.186 203.597 109.316 199.877 108.304 196.426C106.753 191.243 107.079 186.558 109.251 182.527Z" fill="#564646"/>
<path d="M134.959 219.801C135.351 219.351 135.727 218.893 136.07 218.411C141.777 210.497 194.022 138.737 215.225 136.774C215.225 136.774 236.33 136.161 231.611 75.2426C231.611 75.2426 225.398 12.3699 252.537 12.5661C253.067 12.5661 253.598 12.5743 254.129 12.5416C261.73 12.0837 327.266 9.90076 366.113 67.917C366.113 67.917 382.834 92.8208 395.056 102.427C397.792 104.578 401.09 105.845 404.552 106.09C410.92 106.532 424.718 107.783 435.577 110.8C443.219 112.925 448.363 120.096 448.109 128.043L444.999 225.385C444.738 233.536 438.851 240.42 430.833 241.9C410.61 245.645 372.539 251.466 347.817 247.689C346.723 247.517 345.612 247.444 344.51 247.501C332.222 248.089 255.329 251.809 230.109 254.189C229.717 254.23 229.325 254.246 228.925 254.262C219.397 254.516 102.538 256.87 134.959 219.801Z" fill="#1EF4D0"/>
<path d="M219.03 256.772C210.212 256.772 196.944 256.535 183.375 255.407C169.52 254.254 158.024 252.423 149.231 249.945C137.548 246.659 130.6 242.309 128.003 236.659C125.521 231.263 127.195 225.148 132.959 218.452C133.433 217.896 133.898 217.34 134.323 216.751C137.425 212.459 150.309 194.823 165.144 177.188C175.145 165.308 184.077 155.743 191.687 148.752C201.639 139.62 209.273 134.919 215.004 134.387C215.078 134.379 215.078 134.379 215.135 134.379C215.453 134.346 218.091 133.978 221.087 130.487C224.181 126.882 226.5 121.347 227.994 114.029C230.019 104.095 230.435 91.1202 229.219 75.4551C229.007 73.2885 225.079 30.9128 239.62 15.6974C243.123 12.0265 247.409 10.1705 252.365 10.1624C252.969 10.1624 253.565 10.1624 254.17 10.1297C258.26 9.88437 274.499 9.38564 294.894 14.8144C308.504 18.4364 321.119 23.9633 332.386 31.248C346.486 40.356 358.504 52.2437 368.105 66.5843C368.163 66.666 373.951 75.2671 381.071 84.1543C386.369 90.7604 390.493 95.1591 393.66 98.0779C397.326 101.455 402.029 103.474 406.993 103.875C410.749 104.177 415.941 104.684 421.51 105.51C424.906 106.017 428.033 106.573 430.882 107.194C442.582 109.729 450.755 120.349 450.371 132.327L445.489 235.556C445.456 236.651 444.68 237.583 443.619 237.82C443.456 237.853 428.833 245.138 408.699 247.942C382.973 251.531 362.603 252.275 348.094 250.158C346.6 249.937 345.098 249.872 343.596 249.945C328.426 250.673 253.574 254.328 229.774 256.633C229.725 256.641 229.676 256.641 229.619 256.641C229.537 256.641 225.463 256.772 219.03 256.772ZM215.404 139.17C212.237 139.481 206.13 142.015 194.936 152.284C187.474 159.127 178.689 168.538 168.826 180.254C151.974 200.277 137.654 220.316 137.507 220.512C137.45 220.594 137.392 220.667 137.327 220.733C132.306 226.235 130.632 230.912 132.347 234.64C135.956 242.489 154.203 248.155 183.726 250.608C204.317 252.316 224.206 251.965 228.582 251.858C229.105 251.842 229.619 251.818 230.141 251.769C257.631 249.193 345.179 245.056 346.069 245.015C346.241 245.007 346.42 245.015 346.592 245.048C360.512 247.484 381.748 246.839 408.005 243.184C413.827 242.374 419.313 241.491 424.163 240.658C434.679 238.842 442.468 229.857 442.811 219.171L445.521 134.207C445.872 123.178 438.206 113.473 427.388 111.372C417.427 109.434 406.536 108.519 400.951 108.281C400.764 108.273 400.576 108.241 400.388 108.191C394.967 106.622 387.423 99.7376 377.315 87.1303C370.065 78.0878 364.178 69.3396 364.121 69.2578C354.887 55.465 343.334 44.0351 329.781 35.2787C318.931 28.272 306.782 22.9413 293.653 19.4502C271.299 13.5063 253.778 14.9616 253.606 14.978C253.492 14.9861 253.378 14.9861 253.263 14.9861C249.214 14.7654 245.874 16.0817 243.074 19.0169C237.743 24.5928 234.477 35.9737 233.611 51.9249C232.942 64.2378 233.979 74.8992 233.987 75.0055C233.987 75.0218 233.987 75.0382 233.995 75.0545C235.269 91.4309 234.787 105.036 232.583 115.484C230.868 123.619 228.108 129.841 224.385 133.986C220.222 138.639 216.221 139.121 215.404 139.17Z" fill="#0691C1"/>
<path d="M400.494 125.1C400.494 125.1 420.783 156.683 393.326 184.154" stroke="#0691C1" stroke-width="5.07692" stroke-miterlimit="10" stroke-linecap="round" stroke-linejoin="round"/>
<path d="M168.222 258.056C157.363 256.012 106.931 245.563 123.921 223.815C123.921 223.815 188.478 140.764 206.611 132.605C214.033 129.269 222.744 117.528 224.786 70.6887C224.786 70.6887 221.912 18.2484 238.984 10.1706C246.323 6.69586 254.896 -1.44734 271.462 10.1706C278.467 15.0843 279.202 16.8503 271.462 44.4113C271.462 44.4113 267.804 60.3462 271.25 85.3317C274.687 110.317 263.894 136.137 253.827 149.3C247.981 156.936 231.954 169.928 224.581 174.286C217.682 178.357 216.841 179.24 207.158 201.209C207.15 201.201 183.653 260.967 168.222 258.056Z" fill="white" stroke="#AFAFAF" stroke-width="2.9011" stroke-miterlimit="10"/>
<path d="M169.365 260.664C168.826 260.664 168.287 260.615 167.756 260.517C162.482 259.52 152.187 257.337 142.512 253.854C129.203 249.063 121.219 243.339 118.769 236.848C116.998 232.147 118.067 227.241 121.945 222.278C122.1 222.074 138.323 201.234 156.555 179.657C181.228 150.461 197.72 133.864 205.583 130.332C209.575 128.533 212.775 124.208 215.364 117.103C219.046 107.023 221.373 91.4066 222.279 70.697C222.206 69.2335 221.626 56.7898 222.989 43.2096C224.957 23.5384 229.978 11.667 237.906 7.91421C238.877 7.45636 239.898 6.89222 240.984 6.29538C247.907 2.48541 257.386 -2.73899 272.874 8.12679C276.663 10.784 279.349 13.0977 279.463 18.7473C279.569 23.7264 277.659 31.5017 273.862 45.0247C273.65 46.0058 270.458 61.4991 273.699 84.9967C275.308 96.6473 274.009 109.614 269.96 122.508C266.645 133.063 261.477 143.389 255.786 150.821C249.687 158.792 233.293 172.021 225.822 176.436C219.65 180.082 218.997 180.467 209.436 202.174C209.052 203.139 203.215 217.79 195.654 231.91C191.042 240.527 186.682 247.288 182.706 252.022C177.831 257.811 173.447 260.664 169.365 260.664ZM255.443 6.63877C255.027 6.63877 254.619 6.65512 254.21 6.68783C250.046 7.00669 246.666 8.87079 243.401 10.6695C242.249 11.3072 241.164 11.9041 240.053 12.4273C236.787 13.9726 234.052 17.8152 231.929 23.8409C230.109 28.9999 228.778 35.6632 227.978 43.6511C226.59 57.4193 227.276 70.419 227.284 70.5498C227.292 70.6316 227.292 70.7133 227.284 70.7951C226.353 92.077 223.928 108.233 220.066 118.82C216.988 127.258 212.922 132.507 207.64 134.886C202.709 137.11 190.503 147.232 160.384 182.87C142.218 204.365 126.052 225.14 125.889 225.344C123.113 228.893 122.321 232.081 123.447 235.082C125.325 240.069 132.502 244.934 144.21 249.144C153.55 252.505 163.56 254.63 168.687 255.595C171.185 256.069 174.819 253.649 178.909 248.785C182.665 244.321 186.829 237.845 191.278 229.53C198.92 215.247 204.774 200.424 204.831 200.277C204.848 200.244 204.856 200.212 204.872 200.187C214.531 178.276 215.56 176.698 223.308 172.127C230.28 168.007 246.168 155.195 251.843 147.779C262.244 134.183 271.976 108.952 268.776 85.6753C265.314 60.5262 268.874 44.5259 269.029 43.8555C269.037 43.8146 269.045 43.7737 269.062 43.741C272.654 30.9457 274.589 23.1868 274.499 18.8536C274.434 15.575 273.356 14.553 270.033 12.2229C264.694 8.47017 259.901 6.63877 255.443 6.63877Z" fill="#9B9797" stroke="#AFAFAF" stroke-width="2.9011" stroke-miterlimit="10"/>
</g>
<defs>
<clipPath id="clip0">
<rect width="450.396" height="264" fill="white"/>
</clipPath>
</defs>
</svg>
