<svg width="200" height="40" viewBox="0 0 200 40" fill="none" xmlns="http://www.w3.org/2000/svg">
<path d="M17.8534 4.34949C18.7315 2.57031 21.2685 2.57031 22.1466 4.34949L25.3209 10.7813C25.6696 11.4878 26.3436 11.9775 27.1233 12.0908L34.2212 13.1222C36.1846 13.4075 36.9686 15.8204 35.5479 17.2053L30.4118 22.2117C29.8476 22.7617 29.5901 23.554 29.7233 24.3305L30.9358 31.3998C31.2712 33.3553 29.2187 34.8465 27.4625 33.9233L21.1139 30.5856C20.4166 30.219 19.5834 30.219 18.8861 30.5856L12.5375 33.9233C10.7813 34.8465 8.72883 33.3553 9.06422 31.3998L10.2767 24.3305C10.4099 23.554 10.1524 22.7617 9.58825 22.2117L4.45214 17.2053C3.03139 15.8204 3.81538 13.4075 5.77882 13.1222L12.8767 12.0908C13.6564 11.9775 14.3304 11.4878 14.6791 10.7813L17.8534 4.34949Z" fill="#FFD600"/>
<path d="M57.8534 4.34949C58.7315 2.57031 61.2685 2.57031 62.1466 4.34949L65.3209 10.7813C65.6696 11.4878 66.3436 11.9775 67.1233 12.0908L74.2212 13.1222C76.1846 13.4075 76.9686 15.8204 75.5479 17.2053L70.4118 22.2117C69.8476 22.7617 69.5901 23.554 69.7233 24.3305L70.9358 31.3998C71.2712 33.3553 69.2187 34.8465 67.4625 33.9233L61.1139 30.5856C60.4166 30.219 59.5834 30.219 58.8861 30.5856L52.5375 33.9233C50.7813 34.8465 48.7288 33.3553 49.0642 31.3998L50.2767 24.3305C50.4099 23.554 50.1524 22.7617 49.5882 22.2117L44.4521 17.2053C43.0314 15.8204 43.8154 13.4075 45.7788 13.1222L52.8767 12.0908C53.6564 11.9775 54.3304 11.4878 54.6791 10.7813L57.8534 4.34949Z" fill="#FFD600"/>
<path d="M97.8534 4.34949C98.7315 2.57031 101.269 2.57031 102.147 4.34949L105.321 10.7813C105.67 11.4878 106.344 11.9775 107.123 12.0908L114.221 13.1222C116.185 13.4075 116.969 15.8204 115.548 17.2053L110.412 22.2117C109.848 22.7617 109.59 23.554 109.723 24.3305L110.936 31.3998C111.271 33.3553 109.219 34.8465 107.463 33.9233L101.114 30.5856C100.417 30.219 99.5834 30.219 98.8861 30.5856L92.5375 33.9233C90.7813 34.8465 88.7288 33.3553 89.0642 31.3998L90.2767 24.3305C90.4099 23.554 90.1524 22.7617 89.5882 22.2117L84.4521 17.2053C83.0314 15.8204 83.8154 13.4075 85.7788 13.1222L92.8767 12.0908C93.6564 11.9775 94.3304 11.4878 94.6791 10.7813L97.8534 4.34949Z" fill="#FFD600"/>
<path d="M137.853 4.34949C138.731 2.57031 141.269 2.57031 142.147 4.34949L145.321 10.7813C145.67 11.4878 146.344 11.9775 147.123 12.0908L154.221 13.1222C156.185 13.4075 156.969 15.8204 155.548 17.2053L150.412 22.2117C149.848 22.7617 149.59 23.554 149.723 24.3305L150.936 31.3998C151.271 33.3553 149.219 34.8465 147.463 33.9233L141.114 30.5856C140.417 30.219 139.583 30.219 138.886 30.5856L132.537 33.9233C130.781 34.8465 128.729 33.3553 129.064 31.3998L130.277 24.3306C130.41 23.554 130.152 22.7617 129.588 22.2117L124.452 17.2053C123.031 15.8204 123.815 13.4075 125.779 13.1222L132.877 12.0908C133.656 11.9775 134.33 11.4878 134.679 10.7813L137.853 4.34949Z" fill="#FFD600"/>
<path fill-rule="evenodd" clip-rule="evenodd" d="M140 30.3107V3.01514C140.854 3.01514 141.708 3.45993 142.147 4.34952L145.321 10.7813C145.67 11.4878 146.344 11.9775 147.123 12.0908L154.221 13.1222C156.185 13.4075 156.969 15.8204 155.548 17.2053L150.412 22.2118C149.848 22.7617 149.59 23.554 149.723 24.3306L150.936 31.3998C151.271 33.3553 149.219 34.8466 147.462 33.9233L141.114 30.5857C140.765 30.4023 140.383 30.3107 140 30.3107Z" fill="#FFD600"/>
<path d="M177.853 4.34949C178.731 2.57031 181.269 2.57031 182.147 4.34949L185.321 10.7813C185.67 11.4878 186.344 11.9775 187.123 12.0908L194.221 13.1222C196.185 13.4075 196.969 15.8204 195.548 17.2053L190.412 22.2117C189.848 22.7617 189.59 23.554 189.723 24.3305L190.936 31.3998C191.271 33.3553 189.219 34.8465 187.463 33.9233L181.114 30.5856C180.417 30.219 179.583 30.219 178.886 30.5856L172.537 33.9233C170.781 34.8465 168.729 33.3553 169.064 31.3998L170.277 24.3306C170.41 23.554 170.152 22.7617 169.588 22.2117L164.452 17.2053C163.031 15.8204 163.815 13.4075 165.779 13.1222L172.877 12.0908C173.656 11.9775 174.33 11.4878 174.679 10.7813L177.853 4.34949Z" fill="#FFD600"/>
</svg>
