<svg width="119" height="71" viewBox="0 0 119 71" fill="none" xmlns="http://www.w3.org/2000/svg">
<g opacity="0.6">
<path d="M59.7019 30.3316H58.5007C47.6903 30.3316 38.8906 21.532 38.8906 10.7215V10.0364C38.8906 3.61239 42.3073 0.0444876 48.5088 0.00889751H48.5177H48.5266C51.6052 0.0266925 54.0075 0.934239 55.6713 2.70484C57.2996 4.43096 58.1359 6.89557 58.1626 10.0364V10.0542C58.1626 11.202 58.4562 11.202 59.0969 11.202C59.604 11.202 59.8176 11.1041 59.8532 11.0685C59.9065 11.0151 60.04 10.7393 60.04 10.0453V10.0275C60.0667 6.88667 60.9031 4.41317 62.5313 2.69595C64.1951 0.925341 66.5975 0.0266925 69.6671 0H69.676H69.6849C75.8865 0.0444876 79.3031 3.60349 79.3031 10.0275V10.7126C79.3209 21.5409 70.5213 30.3316 59.7019 30.3316ZM48.5266 3.82593C44.4427 3.85262 42.7077 5.7122 42.7077 10.0364V10.7215C42.7077 19.4322 49.7901 26.5235 58.5007 26.5235H59.7019C68.4126 26.5235 75.495 19.4411 75.495 10.7215V10.0364C75.495 5.7122 73.7511 3.85262 69.676 3.81703C65.681 3.84372 63.8837 5.77448 63.8481 10.0542C63.8481 13.1683 62.1487 14.9745 59.1947 15.0101H59.0969C56.1251 15.0101 54.3456 13.1594 54.3456 10.0542C54.31 5.77448 52.5127 3.85262 48.5266 3.82593Z" fill="#283340"/>
<path d="M49.9762 27.9029C49.2021 27.9029 48.4725 27.4313 48.1878 26.6572C47.823 25.6696 48.3213 24.5752 49.3089 24.2015C57.0942 21.3098 59.2919 14.9659 59.9147 11.4425C60.1105 10.3036 60.1194 8.93336 60.1194 8.92447C60.1194 7.87456 60.9735 7.0293 62.0234 7.0293H62.0323C63.0822 7.0293 63.9364 7.89236 63.9364 8.94226C63.9364 9.01344 63.9275 10.6417 63.6695 12.1098C63.3136 14.1117 62.4861 17.1191 60.5375 20.0819C58.2064 23.6232 54.8698 26.2123 50.6435 27.7872C50.4211 27.8584 50.1897 27.9029 49.9762 27.9029Z" fill="#283340"/>
<path d="M28.5343 53.9991C28.5343 55.0668 27.6713 55.9299 26.6036 55.9299H1.93076C0.863059 55.9299 0 55.0668 0 53.9991C0 52.9314 0.863059 52.0684 1.93076 52.0684H26.6036C27.6713 52.0684 28.5343 52.9314 28.5343 53.9991Z" fill="#283340"/>
<path d="M22.6357 43.4287H23.3564C24.4241 43.4287 25.2872 42.5656 25.2872 41.4979V41.3556C25.2872 40.2879 24.4241 39.4248 23.3564 39.4248H5.17881C4.11111 39.4248 3.24805 40.2879 3.24805 41.3556V41.4979C3.24805 42.5656 4.11111 43.4287 5.17881 43.4287H5.73935C6.51343 43.4287 7.14516 44.0604 7.14516 44.8345C7.14516 45.6086 6.51343 46.2403 5.73935 46.2403H5.17881C4.11111 46.2403 3.24805 47.1034 3.24805 48.1711V48.3134C3.24805 49.3811 4.11111 50.2442 5.17881 50.2442H23.3475C24.4152 50.2442 25.2783 49.3811 25.2783 48.3134V48.1711C25.2783 47.1034 24.4152 46.2403 23.3475 46.2403H22.6268C21.8527 46.2403 21.221 45.6086 21.221 44.8345C21.2299 44.0515 21.8616 43.4287 22.6357 43.4287ZM16.3719 44.8345C16.3719 45.6086 15.7402 46.2403 14.9661 46.2403H13.4001C12.626 46.2403 11.9943 45.6086 11.9943 44.8345C11.9943 44.0604 12.626 43.4287 13.4001 43.4287H14.9661C15.749 43.4287 16.3719 44.0515 16.3719 44.8345Z" fill="#283340"/>
<path d="M39.6114 45.2526V45.217C39.6114 44.5586 39.0775 44.0247 38.4191 44.0247H32.004C30.9363 44.0247 30.0732 43.1616 30.0732 42.0939C30.0732 41.0262 30.9363 40.1632 32.004 40.1632H38.9174C41.8802 40.1632 44.2826 42.5655 44.2826 45.5284C44.2826 48.1709 42.1383 50.3063 39.5046 50.3063H35.9456C35.2872 50.3063 34.7533 50.8402 34.7533 51.4986C34.7533 52.157 35.2872 52.6909 35.9456 52.6909H42.939C44.0067 52.6909 44.8698 53.5539 44.8698 54.6216C44.8698 55.6893 44.0067 56.5524 42.939 56.5524H34.5576C32.0841 56.5524 30.0732 54.5505 30.0732 52.0681V51.8901C30.0732 48.8739 32.5201 46.4359 35.5274 46.4359H38.4191C39.0775 46.4448 39.6114 45.911 39.6114 45.2526ZM53.8118 70.7083H53.7762C53.2868 70.7083 52.8064 70.5215 52.4505 70.1834L47.6013 65.6012C46.7561 64.8004 45.4303 64.8004 44.5851 65.6012L39.7359 70.1567C39.38 70.4948 38.9085 70.6817 38.4102 70.6817C36.4172 70.6817 35.4562 68.2526 36.8976 66.8824L43.2594 60.8766C44.1847 60.0046 45.4037 59.5153 46.676 59.5153C47.2454 59.5153 47.7882 59.7288 48.1975 60.1203L55.3244 66.918C56.7658 68.2882 55.7959 70.7083 53.8118 70.7083ZM56.4099 59.6843H55.9383C54.7282 59.6843 53.7406 58.6967 53.7406 57.4866V51.8545C53.7406 51.1961 53.2068 50.6623 52.5484 50.6623H52.4683C51.8099 50.6623 51.276 51.1961 51.276 51.8545V55.7249C51.276 56.935 50.2884 57.9226 49.0783 57.9226H48.6068C47.3967 57.9226 46.4091 56.935 46.4091 55.7249V41.5512C46.4091 40.3411 47.3967 39.3535 48.6068 39.3535C50.0837 39.3535 51.276 40.5458 51.276 42.0228V45.2526C51.276 45.911 51.8099 46.4448 52.4683 46.4448H52.5484C53.2068 46.4448 53.7406 45.911 53.7406 45.2526V41.5512C53.7406 40.3411 54.7282 39.3535 55.9383 39.3535H56.4099C57.6199 39.3535 58.6076 40.3411 58.6076 41.5512V57.4777C58.6076 58.6967 57.6288 59.6843 56.4099 59.6843Z" fill="#283340"/>
<path d="M76.9184 44.2297C76.9184 44.3542 76.9095 44.4699 76.8917 44.5945L74.0623 63.9732C73.8843 65.2011 72.8344 66.1087 71.5888 66.1087C70.0762 66.1087 68.9106 64.774 69.1153 63.2703L71.3486 46.9345C71.5176 45.7245 70.5745 44.6479 69.3555 44.6479H62.4511C61.3033 44.6479 60.3779 43.7225 60.3779 42.5747C60.3779 41.427 61.3033 40.5016 62.4511 40.5016H73.1903C75.2546 40.5105 76.9184 42.1743 76.9184 44.2297ZM86.9904 50.0664H88.2004C89.3482 50.0664 90.2736 50.9918 90.2736 52.1396V52.2107C90.2736 53.3585 89.3482 54.2839 88.2004 54.2839H87.1683C86.065 54.2839 85.1753 55.1736 85.1753 56.2769V68.2263C85.1753 69.6054 84.0542 70.7265 82.6751 70.7265H82.6128C81.2337 70.7265 80.1126 69.6054 80.1126 68.2263V41.1867C80.1126 39.8076 81.2337 38.6865 82.6128 38.6865H82.6751C84.0542 38.6865 85.1753 39.8076 85.1753 41.1867V48.2424C85.1753 49.2479 85.985 50.0664 86.9904 50.0664Z" fill="#283340"/>
<path d="M118.203 55.5738C118.203 56.7394 117.26 57.6825 116.094 57.6825H92.8538C91.6883 57.6825 90.7451 56.7394 90.7451 55.5738C90.7451 54.4082 91.6883 53.4651 92.8538 53.4651H116.094C117.26 53.4651 118.203 54.4082 118.203 55.5738ZM112.793 51.2941H99.3401C96.5374 51.2941 94.2596 49.0163 94.2596 46.2136V44.8523C94.2596 41.8538 96.6887 39.4248 99.6871 39.4248H112.784C113.834 39.4248 114.679 40.2701 114.679 41.32V41.5691C114.679 42.619 113.834 43.4643 112.784 43.4643H101.173C100.123 43.4643 99.2778 44.3095 99.2778 45.3594C99.2778 46.4094 100.123 47.2546 101.173 47.2546H112.784C113.834 47.2546 114.679 48.0999 114.679 49.1498V49.3989C114.697 50.4399 113.843 51.2941 112.793 51.2941ZM94.3397 66.0195V62.3537C94.3397 61.1881 95.2829 60.245 96.4484 60.245H97.2937C98.4593 60.245 99.4024 61.1881 99.4024 62.3537V64.4268C99.4024 65.5924 100.346 66.5355 101.511 66.5355H112.704C113.87 66.5355 114.813 67.4787 114.813 68.6442C114.813 69.8098 113.87 70.7529 112.704 70.7529H99.0643C96.4573 70.744 94.3397 68.6264 94.3397 66.0195Z" fill="#283340"/>
<path d="M23.5961 67.2297H8.71058C8.37247 67.2297 8.09665 66.9539 8.09665 66.6158C8.09665 66.2777 8.37247 66.0018 8.71058 66.0018H20.2418C22.2793 66.0018 24.1745 64.6316 24.5304 62.6208C24.993 59.996 22.9911 57.7183 20.4553 57.7183H5.09819C4.32411 57.7183 3.69238 58.35 3.69238 59.1241V59.7914C3.69238 60.5655 4.32411 61.1972 5.09819 61.1972H19.7079C20.0371 61.1972 20.304 61.4641 20.304 61.7933C20.304 62.1225 20.0371 62.3895 19.7079 62.3895H7.85642C5.56086 62.3895 3.69238 64.249 3.69238 66.5535C3.69238 68.849 5.55196 70.7175 7.85642 70.7175H23.605C24.3791 70.7175 25.0108 70.0858 25.0108 69.3117V68.6444C25.0019 67.8614 24.3791 67.2297 23.5961 67.2297Z" fill="#283340"/>
</g>
</svg>
