<svg width="175" height="109" viewBox="0 0 175 109" fill="none" xmlns="http://www.w3.org/2000/svg">
<path d="M87.7004 49.3146H86.5395C76.0915 49.3146 67.5869 40.81 67.5869 30.362V29.6999C67.5869 23.4913 70.889 20.043 76.8826 20.0086H76.8912H76.8998C79.8751 20.0258 82.1969 20.9029 83.8049 22.6141C85.3786 24.2824 86.1869 26.6644 86.2127 29.6999V29.7171C86.2127 30.8263 86.4965 30.8263 87.1156 30.8263C87.6058 30.8263 87.8121 30.7318 87.8465 30.6974C87.8981 30.6458 88.0271 30.3792 88.0271 29.7085V29.6913C88.0529 26.6558 88.8612 24.2652 90.4349 22.6055C92.0429 20.8943 94.3647 20.0258 97.3314 20H97.34H97.3486C103.342 20.043 106.644 23.4827 106.644 29.6913V30.3534C106.662 40.8186 98.1569 49.3146 87.7004 49.3146ZM76.8998 23.6976C72.9528 23.7234 71.276 25.5207 71.276 29.6999V30.362C71.276 38.7806 78.1209 45.6341 86.5395 45.6341H87.7004C96.1189 45.6341 102.964 38.7892 102.964 30.362V29.6999C102.964 25.5207 101.278 23.7234 97.34 23.689C93.479 23.7148 91.742 25.5809 91.7076 29.7171C91.7076 32.7268 90.0651 34.4724 87.2102 34.5068H87.1156C84.2435 34.5068 82.5237 32.7182 82.5237 29.7171C82.4893 25.5809 80.7522 23.7234 76.8998 23.6976Z" fill="white"/>
<path d="M78.3014 46.967C77.5533 46.967 76.8481 46.5112 76.573 45.7631C76.2204 44.8086 76.7019 43.7509 77.6564 43.3897C85.1807 40.595 87.3047 34.4638 87.9066 31.0585C88.0958 29.9578 88.1044 28.6336 88.1044 28.625C88.1044 27.6103 88.93 26.7933 89.9447 26.7933H89.9533C90.968 26.7933 91.7935 27.6275 91.7935 28.6422C91.7935 28.7109 91.7849 30.2846 91.5355 31.7035C91.1915 33.6383 90.3918 36.5448 88.5086 39.4083C86.2556 42.8308 83.0309 45.3331 78.9463 46.8552C78.7313 46.924 78.5078 46.967 78.3014 46.967Z" fill="white"/>
<path d="M57.5775 72.1883C57.5775 73.2202 56.7434 74.0543 55.7115 74.0543H31.866C30.8341 74.0543 30 73.2202 30 72.1883C30 71.1564 30.8341 70.3223 31.866 70.3223H55.7115C56.7434 70.3223 57.5775 71.1564 57.5775 72.1883Z" fill="white"/>
<path d="M51.8763 61.9725H52.5728C53.6047 61.9725 54.4388 61.1384 54.4388 60.1065V59.9689C54.4388 58.937 53.6047 58.1029 52.5728 58.1029H35.0047C33.9728 58.1029 33.1387 58.937 33.1387 59.9689V60.1065C33.1387 61.1384 33.9728 61.9725 35.0047 61.9725H35.5464C36.2946 61.9725 36.9051 62.5831 36.9051 63.3312C36.9051 64.0793 36.2946 64.6899 35.5464 64.6899H35.0047C33.9728 64.6899 33.1387 65.524 33.1387 66.5559V66.6935C33.1387 67.7254 33.9728 68.5595 35.0047 68.5595H52.5642C53.5961 68.5595 54.4302 67.7254 54.4302 66.6935V66.5559C54.4302 65.524 53.5961 64.6899 52.5642 64.6899H51.8677C51.1195 64.6899 50.509 64.0793 50.509 63.3312C50.5176 62.5745 51.1281 61.9725 51.8763 61.9725ZM45.8224 63.3312C45.8224 64.0793 45.2119 64.6899 44.4638 64.6899H42.9503C42.2022 64.6899 41.5917 64.0793 41.5917 63.3312C41.5917 62.5831 42.2022 61.9725 42.9503 61.9725H44.4638C45.2205 61.9725 45.8224 62.5745 45.8224 63.3312Z" fill="white"/>
<path d="M68.2835 63.7353V63.7009C68.2835 63.0646 67.7675 62.5486 67.1312 62.5486H60.9312C59.8993 62.5486 59.0652 61.7145 59.0652 60.6826C59.0652 59.6507 59.8993 58.8166 60.9312 58.8166H67.6128C70.4763 58.8166 72.7981 61.1384 72.7981 64.0019C72.7981 66.5558 70.7257 68.6196 68.1803 68.6196H64.7406C64.1043 68.6196 63.5883 69.1356 63.5883 69.7719C63.5883 70.4083 64.1043 70.9242 64.7406 70.9242H71.4996C72.5315 70.9242 73.3656 71.7583 73.3656 72.7902C73.3656 73.8221 72.5315 74.6562 71.4996 74.6562H63.3992C61.0086 74.6562 59.0652 72.7214 59.0652 70.3223V70.1503C59.0652 67.2352 61.43 64.879 64.3365 64.879H67.1312C67.7675 64.8876 68.2835 64.3716 68.2835 63.7353ZM82.0078 88.3375H81.9734C81.5004 88.3375 81.0361 88.1569 80.6921 87.8302L76.0055 83.4016C75.1886 82.6277 73.9073 82.6277 73.0904 83.4016L68.4039 87.8044C68.0599 88.1311 67.6042 88.3117 67.1226 88.3117C65.1964 88.3117 64.2677 85.9641 65.6607 84.6399L71.8091 78.8354C72.7035 77.9927 73.8815 77.5198 75.1112 77.5198C75.6616 77.5198 76.1861 77.7261 76.5817 78.1045L83.4696 84.6743C84.8627 85.9985 83.9254 88.3375 82.0078 88.3375ZM84.5187 77.6831H84.063C82.8935 77.6831 81.939 76.7286 81.939 75.5592V70.1159C81.939 69.4795 81.423 68.9636 80.7867 68.9636H80.7093C80.0729 68.9636 79.557 69.4795 79.557 70.1159V73.8565C79.557 75.026 78.6025 75.9805 77.433 75.9805H76.9772C75.8078 75.9805 74.8533 75.026 74.8533 73.8565V60.158C74.8533 58.9886 75.8078 58.0341 76.9772 58.0341C78.4047 58.0341 79.557 59.1863 79.557 60.6138V63.7353C79.557 64.3716 80.0729 64.8876 80.7093 64.8876H80.7867C81.423 64.8876 81.939 64.3716 81.939 63.7353V60.158C81.939 58.9886 82.8935 58.0341 84.063 58.0341H84.5187C85.6882 58.0341 86.6427 58.9886 86.6427 60.158V75.5506C86.6427 76.7286 85.6968 77.6831 84.5187 77.6831Z" fill="white"/>
<path d="M104.34 62.7464C104.34 62.8668 104.331 62.9786 104.314 63.099L101.58 81.828C101.408 83.0147 100.393 83.8918 99.1889 83.8918C97.7271 83.8918 96.6006 82.6019 96.7984 81.1486L98.9568 65.3606C99.1202 64.1911 98.2086 63.1506 97.0306 63.1506H90.3576C89.2483 63.1506 88.354 62.2563 88.354 61.147C88.354 60.0377 89.2483 59.1434 90.3576 59.1434H100.737C102.732 59.152 104.34 60.76 104.34 62.7464ZM114.074 68.3875H115.244C116.353 68.3875 117.247 69.2818 117.247 70.3911V70.4599C117.247 71.5692 116.353 72.4635 115.244 72.4635H114.246C113.18 72.4635 112.32 73.3234 112.32 74.3897V85.9384C112.32 87.2713 111.236 88.3548 109.904 88.3548H109.843C108.51 88.3548 107.427 87.2713 107.427 85.9384V59.8055C107.427 58.4727 108.51 57.3892 109.843 57.3892H109.904C111.236 57.3892 112.32 58.4727 112.32 59.8055V66.6247C112.32 67.5964 113.102 68.3875 114.074 68.3875Z" fill="white"/>
<path d="M144.24 73.7104C144.24 74.8369 143.328 75.7484 142.202 75.7484H119.741C118.614 75.7484 117.703 74.8369 117.703 73.7104C117.703 72.5839 118.614 71.6724 119.741 71.6724H142.202C143.328 71.6724 144.24 72.5839 144.24 73.7104ZM139.012 69.5742H126.01C123.301 69.5742 121.1 67.3728 121.1 64.6641V63.3484C121.1 60.4505 123.447 58.1029 126.345 58.1029H139.003C140.018 58.1029 140.835 58.9198 140.835 59.9345V60.1753C140.835 61.19 140.018 62.0069 139.003 62.0069H127.781C126.766 62.0069 125.949 62.8238 125.949 63.8385C125.949 64.8533 126.766 65.6702 127.781 65.6702H139.003C140.018 65.6702 140.835 66.4871 140.835 67.5018V67.7426C140.852 68.7487 140.026 69.5742 139.012 69.5742ZM121.177 83.8058V80.263C121.177 79.1365 122.088 78.2249 123.215 78.2249H124.032C125.158 78.2249 126.07 79.1365 126.07 80.263V82.2666C126.07 83.393 126.981 84.3046 128.108 84.3046H138.926C140.052 84.3046 140.964 85.2161 140.964 86.3426C140.964 87.4691 140.052 88.3806 138.926 88.3806H125.743C123.224 88.372 121.177 86.3254 121.177 83.8058Z" fill="white"/>
<path d="M52.8049 84.9752H38.4185C38.0918 84.9752 37.8252 84.7086 37.8252 84.3819C37.8252 84.0551 38.0918 83.7885 38.4185 83.7885H49.563C51.5323 83.7885 53.3639 82.4643 53.7078 80.5209C54.155 77.9841 52.2202 75.7827 49.7694 75.7827H34.9273C34.1791 75.7827 33.5686 76.3933 33.5686 77.1414V77.7863C33.5686 78.5344 34.1791 79.145 34.9273 79.145H49.0471C49.3653 79.145 49.6232 79.403 49.6232 79.7211C49.6232 80.0393 49.3653 80.2973 49.0471 80.2973H37.593C35.3744 80.2973 33.5686 82.0945 33.5686 84.3217C33.5686 86.5403 35.3658 88.3461 37.593 88.3461H52.8135C53.5617 88.3461 54.1722 87.7356 54.1722 86.9874V86.3425C54.1636 85.5858 53.5617 84.9752 52.8049 84.9752Z" fill="white"/>
</svg>
